<svg width="1440" height="160" viewBox="0 0 1440 160" fill="none" xmlns="http://www.w3.org/2000/svg">
<path d="M735.074 121.33C735.74 120.646 735.997 119.701 735.755 118.8L727.302 87.2502L814.646 80.6499C816.01 80.552 817.102 79.5014 817.226 78.1758C817.353 76.864 816.449 75.6799 815.122 75.3965L685.839 48.1721C684.907 47.9763 683.92 48.2704 683.236 48.944C682.566 49.6138 682.303 50.5906 682.541 51.4778L691.407 84.5664L604.062 91.1668C602.699 91.2647 601.595 92.3329 601.486 93.6547C601.459 93.959 601.491 94.2478 601.569 94.5389C601.821 95.4815 602.592 96.2259 603.637 96.4363L732.503 122.108C733.432 122.29 734.419 121.996 735.085 121.312L735.074 121.33Z" fill="#F4B527" fill-opacity="0.3"/>
<rect x="1178.07" y="35.6927" width="19.6928" height="37.1974" fill="#F4B527"/>
<rect x="972.388" y="35.6927" width="19.6928" height="48.1378" fill="#F8D370"/>
<rect x="972.388" y="83.8306" width="19.6928" height="48.1378" fill="#FAE19D"/>
<rect x="992.081" y="44.4451" width="37.1974" height="39.3855" fill="#FAE19D"/>
<path d="M1029.28 44.4451H1058.48C1062.89 44.4451 1066.48 48.0268 1066.48 52.4451V83.8306H1029.28V44.4451Z" fill="#F8D370"/>
<rect x="992.081" y="83.8306" width="37.1974" height="39.3855" fill="#F8D370"/>
<path d="M1029.28 83.8306H1066.48V115.216C1066.48 119.634 1062.89 123.216 1058.48 123.216H1029.28V83.8306Z" fill="#F4B527"/>
<path d="M1066.48 64.1378H1101.86C1104.07 64.1378 1105.86 65.9287 1105.86 68.1378V83.8306H1066.48V64.1378Z" fill="#F4B527"/>
<path d="M1066.48 83.8306H1105.86V99.5234C1105.86 101.732 1104.07 103.523 1101.86 103.523H1066.48V83.8306Z" fill="#F8D370"/>
<path d="M1105.86 72.8902H1197.76V87.583C1197.76 90.3444 1195.52 92.583 1192.76 92.583H1105.86V72.8902Z" fill="#FAE19D"/>
<path d="M1178.07 21C1178.07 18.2386 1180.31 16 1183.07 16H1449.39V35.6928H1178.07V21Z" fill="#FAE19D"/>
<rect width="20" height="37" transform="matrix(-1 0 0 1 241 92)" fill="#00A7F6"/>
<rect width="19.6928" height="48.1378" transform="matrix(-1 0 0 1 446.005 34.6927)" fill="#AAE7FC"/>
<rect width="19.6928" height="48.1378" transform="matrix(-1 0 0 1 446.005 82.8306)" fill="#00A7F6"/>
<rect width="37.1974" height="39.3855" transform="matrix(-1 0 0 1 426.312 43.4451)" fill="#00A7F6"/>
<path d="M389.115 43.4451H359.918C355.5 43.4451 351.918 47.0268 351.918 51.4451V82.8306H389.115V43.4451Z" fill="#0754BC"/>
<rect width="37.1974" height="39.3855" transform="matrix(-1 0 0 1 426.312 82.8306)" fill="#AAE7FC"/>
<path d="M389.115 82.8306H351.918V114.216C351.918 118.634 355.5 122.216 359.918 122.216H389.115V82.8306Z" fill="#00A7F6"/>
<path d="M351.917 63.1378H316.531C314.322 63.1378 312.531 64.9287 312.531 67.1378V82.8306H351.917V63.1378Z" fill="#00A7F6"/>
<path d="M351.917 82.8306H312.531V98.5234C312.531 100.732 314.322 102.523 316.531 102.523H351.917V82.8306Z" fill="#0754BC"/>
<path d="M313 72H226C223.239 72 221 74.2386 221 77V92H313V72Z" fill="#AAE7FC"/>
<path d="M241 129H-30V149H236C238.761 149 241 146.761 241 144V129Z" fill="#AAE7FC"/>
<path d="M446.005 54.3855H480.39C483.152 54.3855 485.39 56.6241 485.39 59.3855V69.0783C485.39 71.8397 483.152 74.0783 480.39 74.0783H446.005V54.3855Z" fill="#00A7F6"/>
<path d="M446.005 91.5829H480.39C483.152 91.5829 485.39 93.8215 485.39 96.5829V106.276C485.39 109.037 483.152 111.276 480.39 111.276H446.005V91.5829Z" fill="#0754BC"/>
<path d="M535.928 76.264C533.486 76.264 531.022 75.538 529.658 74.482L530.868 71.798C532.166 72.744 534.102 73.404 535.95 73.404C538.062 73.404 538.92 72.7 538.92 71.754C538.92 68.872 529.966 70.852 529.966 65.132C529.966 62.514 532.078 60.336 536.456 60.336C538.392 60.336 540.372 60.798 541.802 61.7L540.702 64.406C539.272 63.592 537.798 63.196 536.434 63.196C534.322 63.196 533.508 63.988 533.508 64.956C533.508 67.794 542.462 65.836 542.462 71.49C542.462 74.064 540.328 76.264 535.928 76.264ZM546.371 62.514C545.095 62.514 544.237 61.678 544.237 60.6C544.237 59.522 545.095 58.686 546.371 58.686C547.647 58.686 548.505 59.478 548.505 60.534C548.505 61.678 547.647 62.514 546.371 62.514ZM544.655 76V64.164H548.087V76H544.655ZM551.272 76V59.676H554.704V76H551.272ZM562.664 63.988C566.272 63.988 568.362 65.66 568.362 69.246V76H565.15V74.526C564.512 75.604 563.28 76.176 561.542 76.176C558.77 76.176 557.12 74.636 557.12 72.59C557.12 70.5 558.594 69.048 562.202 69.048H564.93C564.93 67.574 564.05 66.716 562.202 66.716C560.948 66.716 559.65 67.134 558.792 67.816L557.56 65.418C558.858 64.494 560.772 63.988 562.664 63.988ZM562.4 73.866C563.544 73.866 564.534 73.338 564.93 72.26V71.05H562.576C560.97 71.05 560.464 71.644 560.464 72.436C560.464 73.294 561.19 73.866 562.4 73.866ZM578.662 63.988C581.456 63.988 583.568 65.616 583.568 69.224V76H580.136V69.752C580.136 67.838 579.256 66.958 577.738 66.958C576.088 66.958 574.9 67.97 574.9 70.148V76H571.468V59.676H574.9V65.396C575.824 64.472 577.144 63.988 578.662 63.988ZM595.501 76L591.761 71.358L590.111 72.986V76H586.679V59.676H590.111V68.916L595.127 64.164H599.219L594.291 69.18L599.659 76H595.501ZM605.761 63.988C609.369 63.988 611.459 65.66 611.459 69.246V76H608.247V74.526C607.609 75.604 606.377 76.176 604.639 76.176C601.867 76.176 600.217 74.636 600.217 72.59C600.217 70.5 601.691 69.048 605.299 69.048H608.027C608.027 67.574 607.147 66.716 605.299 66.716C604.045 66.716 602.747 67.134 601.889 67.816L600.657 65.418C601.955 64.494 603.869 63.988 605.761 63.988ZM605.497 73.866C606.641 73.866 607.631 73.338 608.027 72.26V71.05H605.673C604.067 71.05 603.561 71.644 603.561 72.436C603.561 73.294 604.287 73.866 605.497 73.866ZM621.759 63.988C624.553 63.988 626.665 65.616 626.665 69.224V76H623.233V69.752C623.233 67.838 622.353 66.958 620.835 66.958C619.185 66.958 617.997 67.97 617.997 70.148V76H614.565V64.164H617.843V65.55C618.767 64.538 620.153 63.988 621.759 63.988ZM643.619 76.264C638.845 76.264 635.281 72.942 635.281 68.3C635.281 63.658 638.845 60.336 643.641 60.336C646.303 60.336 648.525 61.304 649.977 63.064L647.689 65.176C646.655 63.988 645.357 63.372 643.817 63.372C640.935 63.372 638.889 65.396 638.889 68.3C638.889 71.204 640.935 73.228 643.817 73.228C645.357 73.228 646.655 72.612 647.689 71.402L649.977 73.514C648.525 75.296 646.303 76.264 643.619 76.264ZM657.365 76.176C653.603 76.176 650.853 73.646 650.853 70.082C650.853 66.518 653.603 63.988 657.365 63.988C661.127 63.988 663.855 66.518 663.855 70.082C663.855 73.646 661.127 76.176 657.365 76.176ZM657.365 73.36C659.081 73.36 660.379 72.128 660.379 70.082C660.379 68.036 659.081 66.804 657.365 66.804C655.649 66.804 654.329 68.036 654.329 70.082C654.329 72.128 655.649 73.36 657.365 73.36ZM673.145 63.988C676.467 63.988 679.041 66.364 679.041 70.082C679.041 73.8 676.467 76.176 673.145 76.176C671.561 76.176 670.285 75.67 669.427 74.636V76H666.149V59.676H669.581V65.418C670.461 64.45 671.671 63.988 673.145 63.988ZM672.551 73.36C674.267 73.36 675.565 72.128 675.565 70.082C675.565 68.036 674.267 66.804 672.551 66.804C670.835 66.804 669.537 68.036 669.537 70.082C669.537 72.128 670.835 73.36 672.551 73.36ZM685.92 63.988C689.528 63.988 691.618 65.66 691.618 69.246V76H688.406V74.526C687.768 75.604 686.536 76.176 684.798 76.176C682.026 76.176 680.376 74.636 680.376 72.59C680.376 70.5 681.85 69.048 685.458 69.048H688.186C688.186 67.574 687.306 66.716 685.458 66.716C684.204 66.716 682.906 67.134 682.048 67.816L680.816 65.418C682.114 64.494 684.028 63.988 685.92 63.988ZM685.656 73.866C686.8 73.866 687.79 73.338 688.186 72.26V71.05H685.832C684.226 71.05 683.72 71.644 683.72 72.436C683.72 73.294 684.446 73.866 685.656 73.866ZM712.504 67.992C714.22 68.542 715.32 69.862 715.32 71.798C715.32 74.46 713.208 76 709.16 76H701.196V60.6H708.72C712.57 60.6 714.55 62.206 714.55 64.604C714.55 66.144 713.758 67.332 712.504 67.992ZM708.28 63.284H704.738V66.914H708.28C710.018 66.914 710.964 66.298 710.964 65.088C710.964 63.878 710.018 63.284 708.28 63.284ZM708.896 73.316C710.744 73.316 711.734 72.744 711.734 71.424C711.734 70.126 710.744 69.51 708.896 69.51H704.738V73.316H708.896ZM729.37 70.126C729.37 70.39 729.326 70.764 729.304 71.05H720.35C720.68 72.524 721.934 73.426 723.738 73.426C724.992 73.426 725.894 73.052 726.708 72.282L728.534 74.262C727.434 75.516 725.784 76.176 723.65 76.176C719.558 76.176 716.896 73.602 716.896 70.082C716.896 66.54 719.602 63.988 723.21 63.988C726.686 63.988 729.37 66.32 729.37 70.126ZM723.232 66.584C721.67 66.584 720.548 67.53 720.306 69.048H726.136C725.894 67.552 724.772 66.584 723.232 66.584ZM738.651 63.988C741.973 63.988 744.547 66.364 744.547 70.082C744.547 73.8 741.973 76.176 738.651 76.176C737.067 76.176 735.791 75.67 734.933 74.636V76H731.655V59.676H735.087V65.418C735.967 64.45 737.177 63.988 738.651 63.988ZM738.057 73.36C739.773 73.36 741.071 72.128 741.071 70.082C741.071 68.036 739.773 66.804 738.057 66.804C736.341 66.804 735.043 68.036 735.043 70.082C735.043 72.128 736.341 73.36 738.057 73.36ZM758.439 70.126C758.439 70.39 758.395 70.764 758.373 71.05H749.419C749.749 72.524 751.003 73.426 752.807 73.426C754.061 73.426 754.963 73.052 755.777 72.282L757.603 74.262C756.503 75.516 754.853 76.176 752.719 76.176C748.627 76.176 745.965 73.602 745.965 70.082C745.965 66.54 748.671 63.988 752.279 63.988C755.755 63.988 758.439 66.32 758.439 70.126ZM752.301 66.584C750.739 66.584 749.617 67.53 749.375 69.048H755.205C754.963 67.552 753.841 66.584 752.301 66.584ZM764.002 65.726C764.838 64.582 766.246 63.988 768.072 63.988V67.156C767.786 67.134 767.566 67.112 767.302 67.112C765.41 67.112 764.156 68.146 764.156 70.412V76H760.724V64.164H764.002V65.726ZM774.822 63.988C778.43 63.988 780.52 65.66 780.52 69.246V76H777.308V74.526C776.67 75.604 775.438 76.176 773.7 76.176C770.928 76.176 769.278 74.636 769.278 72.59C769.278 70.5 770.752 69.048 774.36 69.048H777.088C777.088 67.574 776.208 66.716 774.36 66.716C773.106 66.716 771.808 67.134 770.95 67.816L769.718 65.418C771.016 64.494 772.93 63.988 774.822 63.988ZM774.558 73.866C775.702 73.866 776.692 73.338 777.088 72.26V71.05H774.734C773.128 71.05 772.622 71.644 772.622 72.436C772.622 73.294 773.348 73.866 774.558 73.866ZM790.622 63.988C793.944 63.988 796.518 66.364 796.518 70.082C796.518 73.8 793.944 76.176 790.622 76.176C789.148 76.176 787.938 75.714 787.058 74.746V80.268H783.626V64.164H786.904V65.528C787.762 64.494 789.038 63.988 790.622 63.988ZM790.028 73.36C791.744 73.36 793.042 72.128 793.042 70.082C793.042 68.036 791.744 66.804 790.028 66.804C788.312 66.804 787.014 68.036 787.014 70.082C787.014 72.128 788.312 73.36 790.028 73.36ZM803.396 63.988C807.004 63.988 809.094 65.66 809.094 69.246V76H805.882V74.526C805.244 75.604 804.012 76.176 802.274 76.176C799.502 76.176 797.852 74.636 797.852 72.59C797.852 70.5 799.326 69.048 802.934 69.048H805.662C805.662 67.574 804.782 66.716 802.934 66.716C801.68 66.716 800.382 67.134 799.524 67.816L798.292 65.418C799.59 64.494 801.504 63.988 803.396 63.988ZM803.132 73.866C804.276 73.866 805.266 73.338 805.662 72.26V71.05H803.308C801.702 71.05 801.196 71.644 801.196 72.436C801.196 73.294 801.922 73.866 803.132 73.866ZM823.733 76.264C821.291 76.264 818.827 75.538 817.463 74.482L818.673 71.798C819.971 72.744 821.907 73.404 823.755 73.404C825.867 73.404 826.725 72.7 826.725 71.754C826.725 68.872 817.771 70.852 817.771 65.132C817.771 62.514 819.883 60.336 824.261 60.336C826.197 60.336 828.177 60.798 829.607 61.7L828.507 64.406C827.077 63.592 825.603 63.196 824.239 63.196C822.127 63.196 821.313 63.988 821.313 64.956C821.313 67.794 830.267 65.836 830.267 71.49C830.267 74.064 828.133 76.264 823.733 76.264ZM837.234 63.988C840.842 63.988 842.932 65.66 842.932 69.246V76H839.72V74.526C839.082 75.604 837.85 76.176 836.112 76.176C833.34 76.176 831.69 74.636 831.69 72.59C831.69 70.5 833.164 69.048 836.772 69.048H839.5C839.5 67.574 838.62 66.716 836.772 66.716C835.518 66.716 834.22 67.134 833.362 67.816L832.13 65.418C833.428 64.494 835.342 63.988 837.234 63.988ZM836.97 73.866C838.114 73.866 839.104 73.338 839.5 72.26V71.05H837.146C835.54 71.05 835.034 71.644 835.034 72.436C835.034 73.294 835.76 73.866 836.97 73.866ZM850.812 63.988C854.42 63.988 856.51 65.66 856.51 69.246V76H853.298V74.526C852.66 75.604 851.428 76.176 849.69 76.176C846.918 76.176 845.268 74.636 845.268 72.59C845.268 70.5 846.742 69.048 850.35 69.048H853.078C853.078 67.574 852.198 66.716 850.35 66.716C849.096 66.716 847.798 67.134 846.94 67.816L845.708 65.418C847.006 64.494 848.92 63.988 850.812 63.988ZM850.548 73.866C851.692 73.866 852.682 73.338 853.078 72.26V71.05H850.724C849.118 71.05 848.612 71.644 848.612 72.436C848.612 73.294 849.338 73.866 850.548 73.866ZM866.326 73.008L867.25 75.428C866.546 75.934 865.512 76.176 864.456 76.176C861.662 76.176 860.034 74.746 860.034 71.93V67.068H858.208V64.428H860.034V61.546H863.466V64.428H866.414V67.068H863.466V71.886C863.466 72.898 864.016 73.448 864.94 73.448C865.446 73.448 865.952 73.294 866.326 73.008ZM875.649 76V60.6H879.213V73.096H886.935V76H875.649ZM893.587 63.988C897.195 63.988 899.285 65.66 899.285 69.246V76H896.073V74.526C895.435 75.604 894.203 76.176 892.465 76.176C889.693 76.176 888.043 74.636 888.043 72.59C888.043 70.5 889.517 69.048 893.125 69.048H895.853C895.853 67.574 894.973 66.716 893.125 66.716C891.871 66.716 890.573 67.134 889.715 67.816L888.483 65.418C889.781 64.494 891.695 63.988 893.587 63.988ZM893.323 73.866C894.467 73.866 895.457 73.338 895.853 72.26V71.05H893.499C891.893 71.05 891.387 71.644 891.387 72.436C891.387 73.294 892.113 73.866 893.323 73.866ZM911.475 64.164H914.731V74.02C914.731 78.42 912.355 80.444 908.087 80.444C905.843 80.444 903.665 79.894 902.279 78.816L903.643 76.352C904.655 77.166 906.305 77.694 907.823 77.694C910.243 77.694 911.299 76.594 911.299 74.46V73.954C910.397 74.944 909.099 75.428 907.559 75.428C904.281 75.428 901.641 73.162 901.641 69.708C901.641 66.254 904.281 63.988 907.559 63.988C909.209 63.988 910.573 64.538 911.475 65.682V64.164ZM908.241 72.612C910.045 72.612 911.343 71.446 911.343 69.708C911.343 67.97 910.045 66.804 908.241 66.804C906.437 66.804 905.117 67.97 905.117 69.708C905.117 71.446 906.437 72.612 908.241 72.612ZM919.641 62.514C918.365 62.514 917.507 61.678 917.507 60.6C917.507 59.522 918.365 58.686 919.641 58.686C920.917 58.686 921.775 59.478 921.775 60.534C921.775 61.678 920.917 62.514 919.641 62.514ZM917.925 76V64.164H921.357V76H917.925ZM660.848 103V90.504H655.92V87.6H669.34V90.504H664.412V103H660.848ZM681.407 97.126C681.407 97.39 681.363 97.764 681.341 98.05H672.387C672.717 99.524 673.971 100.426 675.775 100.426C677.029 100.426 677.931 100.052 678.745 99.282L680.571 101.262C679.471 102.516 677.821 103.176 675.687 103.176C671.595 103.176 668.933 100.602 668.933 97.082C668.933 93.54 671.639 90.988 675.247 90.988C678.723 90.988 681.407 93.32 681.407 97.126ZM675.269 93.584C673.707 93.584 672.585 94.53 672.343 96.048H678.173C677.931 94.552 676.809 93.584 675.269 93.584ZM686.969 92.726C687.805 91.582 689.213 90.988 691.039 90.988V94.156C690.753 94.134 690.533 94.112 690.269 94.112C688.377 94.112 687.123 95.146 687.123 97.412V103H683.691V91.164H686.969V92.726ZM694.796 89.514C693.52 89.514 692.662 88.678 692.662 87.6C692.662 86.522 693.52 85.686 694.796 85.686C696.072 85.686 696.93 86.478 696.93 87.534C696.93 88.678 696.072 89.514 694.796 89.514ZM693.08 103V91.164H696.512V103H693.08ZM714.855 90.988C717.671 90.988 719.695 92.616 719.695 96.224V103H716.263V96.752C716.263 94.838 715.405 93.958 714.019 93.958C712.479 93.958 711.401 94.948 711.401 97.06V103H707.969V96.752C707.969 94.838 707.155 93.958 705.725 93.958C704.207 93.958 703.129 94.948 703.129 97.06V103H699.697V91.164H702.975V92.528C703.855 91.516 705.175 90.988 706.693 90.988C708.343 90.988 709.751 91.626 710.587 92.924C711.533 91.714 713.073 90.988 714.855 90.988ZM727.546 90.988C731.154 90.988 733.244 92.66 733.244 96.246V103H730.032V101.526C729.394 102.604 728.162 103.176 726.424 103.176C723.652 103.176 722.002 101.636 722.002 99.59C722.002 97.5 723.476 96.048 727.084 96.048H729.812C729.812 94.574 728.932 93.716 727.084 93.716C725.83 93.716 724.532 94.134 723.674 94.816L722.442 92.418C723.74 91.494 725.654 90.988 727.546 90.988ZM727.282 100.866C728.426 100.866 729.416 100.338 729.812 99.26V98.05H727.458C725.852 98.05 725.346 98.644 725.346 99.436C725.346 100.294 726.072 100.866 727.282 100.866ZM745.172 103L741.432 98.358L739.782 99.986V103H736.35V86.676H739.782V95.916L744.798 91.164H748.89L743.962 96.18L749.33 103H745.172ZM755.432 90.988C759.04 90.988 761.13 92.66 761.13 96.246V103H757.918V101.526C757.28 102.604 756.048 103.176 754.31 103.176C751.538 103.176 749.888 101.636 749.888 99.59C749.888 97.5 751.362 96.048 754.97 96.048H757.698C757.698 94.574 756.818 93.716 754.97 93.716C753.716 93.716 752.418 94.134 751.56 94.816L750.328 92.418C751.626 91.494 753.54 90.988 755.432 90.988ZM755.168 100.866C756.312 100.866 757.302 100.338 757.698 99.26V98.05H755.344C753.738 98.05 753.232 98.644 753.232 99.436C753.232 100.294 753.958 100.866 755.168 100.866ZM768.218 103.176C766.216 103.176 764.192 102.626 763.092 101.9L764.236 99.436C765.292 100.118 766.898 100.58 768.35 100.58C769.934 100.58 770.528 100.162 770.528 99.502C770.528 97.566 763.378 99.546 763.378 94.816C763.378 92.572 765.402 90.988 768.856 90.988C770.484 90.988 772.288 91.362 773.41 92.022L772.266 94.464C771.1 93.804 769.934 93.584 768.856 93.584C767.316 93.584 766.656 94.068 766.656 94.684C766.656 96.708 773.806 94.75 773.806 99.414C773.806 101.614 771.76 103.176 768.218 103.176ZM777.64 89.514C776.364 89.514 775.506 88.678 775.506 87.6C775.506 86.522 776.364 85.686 777.64 85.686C778.916 85.686 779.774 86.478 779.774 87.534C779.774 88.678 778.916 89.514 777.64 89.514ZM775.924 103V91.164H779.356V103H775.924ZM789.735 90.988C792.529 90.988 794.641 92.616 794.641 96.224V103H791.209V96.752C791.209 94.838 790.329 93.958 788.811 93.958C787.161 93.958 785.973 94.97 785.973 97.148V103H782.541V86.676H785.973V92.396C786.897 91.472 788.217 90.988 789.735 90.988Z" fill="#0754BC"/>
<path d="M491 29V0H522C516.022 21.165 508.293 26.0348 491 29Z" fill="#00A7F6"/>
<path d="M330 160V135H358C352.601 153.246 345.619 157.444 330 160Z" fill="#AAE7FC"/>
<path d="M951 124L951 149L923 149C928.399 130.754 935.381 126.556 951 124Z" fill="#F4B527"/>
<path d="M1035 25L1016 25L1016 4C1029.87 8.04951 1033.06 13.2854 1035 25Z" fill="#F8D370"/>
</svg>
