<svg width="1440" height="460" viewBox="0 0 1440 460" fill="none" xmlns="http://www.w3.org/2000/svg">
<path d="M1781 194.93C1777.99 178.976 1770.04 165.183 1759.04 154.806C1759.04 154.806 1733.53 129.142 1693.86 135.691C1659.6 141.342 1635.44 170.603 1633.17 203.52C1607.03 193.49 1577.85 190.325 1548.3 195.856C1493.43 206.112 1450.72 243.769 1431.77 291.918C1420.4 289.391 1408.35 289.063 1396.17 291.34C1367.15 296.764 1344.13 315.727 1332.46 340.419C1311.26 310.511 1273.79 293.978 1235.27 301.18C1218.29 304.355 1203.18 311.76 1190.84 322.086C1179.42 314.107 1165.5 309.418 1150.48 309.418C1130.08 309.418 1111.71 318.074 1098.87 331.885C1066.06 285.54 1008.01 259.913 948.349 271.067C902.518 279.635 865.501 308.081 844.615 345.751C834.404 340.535 822.825 337.587 810.553 337.587C778.52 337.587 751.202 357.656 740.615 385.843C723.195 380.793 704.347 379.631 685.294 383.191C665.916 386.815 648.524 394.91 633.99 406.203C621.69 344.502 566.97 297.986 501.318 297.986C444.834 297.986 396.443 332.426 376.194 381.339C360.287 358.072 333.453 342.785 303.031 342.785C286.975 342.785 271.915 347.043 258.94 354.485C233.083 313.987 187.592 287.105 135.785 287.105C115.401 287.105 95.9943 291.27 78.3747 298.787C69.3509 263.768 37.4068 237.882 -0.619934 237.882C-10.7886 237.882 -20.5152 239.738 -29.4925 243.116C-26.3093 232.05 -24.6059 220.363 -24.6059 208.278C-24.6059 138.412 -81.5552 81.779 -151.801 81.779C-222.046 81.779 -279 138.412 -279 208.274C-279 246.759 -261.716 281.227 -234.449 304.429V669H1759.04V262.491C1776.77 245.717 1785.86 220.627 1781 194.93Z" fill="white"/>
<path d="M1788.7 113.878C1785.68 97.8215 1777.74 83.9401 1766.73 73.4965C1766.73 73.4965 1741.21 47.667 1701.52 54.2583C1667.26 59.9459 1643.08 89.3948 1640.81 122.524C1614.67 112.429 1585.48 109.243 1555.92 114.81C1501.03 125.132 1458.31 163.031 1439.35 211.49C1427.98 208.947 1415.92 208.616 1403.74 210.908C1374.71 216.367 1351.68 235.452 1340.01 260.303C1318.8 230.202 1281.31 213.563 1242.78 220.811C1225.79 224.006 1210.68 231.46 1198.34 241.852C1186.91 233.821 1172.99 229.103 1157.97 229.103C1137.55 229.103 1119.18 237.813 1106.34 251.713C1073.51 205.071 1015.45 179.279 955.765 190.505C909.918 199.127 872.888 227.756 851.995 265.669C841.781 260.419 830.198 257.452 817.922 257.452C785.878 257.452 758.551 277.65 747.96 306.018C730.534 300.936 711.68 299.767 692.62 303.349C673.235 306.996 655.838 315.148 641.299 326.509C628.995 264.411 574.256 217.597 508.582 217.597C452.079 217.597 403.672 252.258 383.416 301.486C367.503 278.069 340.66 262.683 310.228 262.683C294.166 262.683 279.101 266.969 266.122 274.459C240.256 233.7 194.749 206.646 142.925 206.646C122.534 206.646 103.121 210.838 85.4956 218.403C76.4688 183.159 44.5138 157.106 6.47424 157.106C-3.69788 157.106 -13.4277 158.974 -22.4081 162.374C-19.2237 151.237 -17.5199 139.475 -17.5199 127.312C-17.5199 56.9973 -74.4884 0 -144.758 0C-215.027 0 -272 56.9973 -272 127.312C-272 166.045 -254.71 200.734 -227.434 224.086V591H1766.73V181.878C1784.46 164.997 1793.56 139.745 1788.7 113.883V113.878Z" fill="white"/>
</svg>
