<svg width="1440" height="460" viewBox="0 0 1440 460" fill="none" xmlns="http://www.w3.org/2000/svg">
<path d="M1781 194.93C1777.99 178.976 1770.04 165.183 1759.04 154.806C1759.04 154.806 1733.53 129.142 1693.86 135.691C1659.6 141.342 1635.44 170.603 1633.17 203.52C1607.03 193.491 1577.85 190.325 1548.3 195.856C1493.43 206.112 1450.72 243.769 1431.77 291.918C1420.4 289.391 1408.35 289.063 1396.17 291.34C1367.15 296.764 1344.13 315.727 1332.46 340.42C1311.26 310.511 1273.79 293.978 1235.27 301.18C1218.29 304.355 1203.18 311.76 1190.84 322.086C1179.42 314.107 1165.5 309.418 1150.48 309.418C1130.08 309.418 1111.71 318.074 1098.87 331.885C1066.06 285.54 1008.01 259.913 948.349 271.067C902.518 279.635 865.501 308.081 844.615 345.751C834.404 340.535 822.825 337.587 810.553 337.587C778.52 337.587 751.202 357.656 740.615 385.843C723.195 380.793 704.347 379.631 685.294 383.191C665.916 386.815 648.524 394.91 633.99 406.203C621.69 344.502 566.97 297.986 501.318 297.986C444.834 297.986 396.443 332.426 376.194 381.339C360.287 358.072 333.453 342.785 303.031 342.785C286.975 342.785 271.915 347.043 258.94 354.485C233.083 313.987 187.592 287.105 135.785 287.105C115.401 287.105 95.9943 291.27 78.3747 298.787C69.3509 263.768 37.4068 237.882 -0.61992 237.882C-10.7886 237.882 -20.5152 239.738 -29.4925 243.116C-26.3093 232.05 -24.6059 220.363 -24.6059 208.278C-24.6059 138.412 -81.5552 81.7791 -151.801 81.7791C-222.046 81.7791 -279 138.412 -279 208.274C-279 246.759 -261.716 281.227 -234.449 304.429V669H1759.04V262.491C1776.77 245.717 1785.86 220.627 1781 194.93Z" fill="white"/>
<path d="M1788.7 113.878C1785.68 97.8215 1777.74 83.9401 1766.73 73.4965C1766.73 73.4965 1741.21 47.667 1701.52 54.2583C1667.26 59.9459 1643.08 89.3948 1640.81 122.524C1614.67 112.429 1585.48 109.243 1555.92 114.81C1501.03 125.132 1458.31 163.031 1439.35 211.49C1427.98 208.947 1415.92 208.616 1403.74 210.908C1374.71 216.367 1351.68 235.452 1340.01 260.303C1318.8 230.202 1281.31 213.563 1242.78 220.811C1225.79 224.006 1210.68 231.46 1198.34 241.852C1186.91 233.821 1172.99 229.103 1157.97 229.103C1137.55 229.103 1119.18 237.813 1106.34 251.713C1073.51 205.071 1015.45 179.279 955.765 190.505C909.918 199.127 872.888 227.756 851.995 265.669C841.781 260.419 830.198 257.452 817.922 257.452C785.878 257.452 758.551 277.65 747.96 306.018C730.534 300.936 711.68 299.767 692.62 303.349C673.235 306.996 655.838 315.148 641.299 326.509C628.995 264.411 574.256 217.597 508.582 217.597C452.079 217.597 403.672 252.258 383.416 301.486C367.503 278.069 340.66 262.683 310.228 262.683C294.166 262.683 279.101 266.969 266.122 274.459C240.256 233.7 194.749 206.646 142.925 206.646C122.534 206.646 103.121 210.838 85.4956 218.403C76.4687 183.159 44.5138 157.106 6.47424 157.106C-3.69789 157.106 -13.4277 158.974 -22.4081 162.374C-19.2237 151.237 -17.5199 139.475 -17.5199 127.312C-17.5199 56.9973 -74.4884 0 -144.758 0C-215.027 0 -272 56.9973 -272 127.312C-272 166.045 -254.71 200.734 -227.434 224.086V591H1766.73V181.878C1784.46 164.997 1793.56 139.745 1788.7 113.883V113.878Z" fill="white"/>
<path d="M735.074 408.33C735.74 407.646 735.997 406.701 735.755 405.8L727.302 374.25L814.646 367.65C816.01 367.552 817.102 366.501 817.226 365.176C817.353 363.864 816.449 362.68 815.122 362.397L685.839 335.172C684.907 334.976 683.92 335.27 683.236 335.944C682.566 336.614 682.303 337.591 682.541 338.478L691.407 371.566L604.062 378.167C602.699 378.265 601.595 379.333 601.486 380.655C601.459 380.959 601.491 381.248 601.569 381.539C601.821 382.482 602.592 383.226 603.637 383.436L732.503 409.108C733.432 409.29 734.419 408.996 735.085 408.312L735.074 408.33Z" fill="#F4B527" fill-opacity="0.3"/>
<rect x="1178.07" y="322.693" width="19.6928" height="37.1974" fill="#F4B527"/>
<rect x="972.387" y="322.693" width="19.6928" height="48.1378" fill="#F8D370"/>
<rect x="972.387" y="370.831" width="19.6928" height="48.1378" fill="#FAE19D"/>
<rect x="992.08" y="331.445" width="37.1974" height="39.3855" fill="#FAE19D"/>
<path d="M1029.28 331.445H1058.47C1062.89 331.445 1066.47 335.027 1066.47 339.445V370.831H1029.28V331.445Z" fill="#F8D370"/>
<rect x="992.08" y="370.831" width="37.1974" height="39.3855" fill="#F8D370"/>
<path d="M1029.28 370.831H1066.47V402.216C1066.47 406.634 1062.89 410.216 1058.47 410.216H1029.28V370.831Z" fill="#F4B527"/>
<path d="M1066.47 351.138H1101.86C1104.07 351.138 1105.86 352.929 1105.86 355.138V370.831H1066.47V351.138Z" fill="#F4B527"/>
<path d="M1066.47 370.831H1105.86V386.523C1105.86 388.732 1104.07 390.523 1101.86 390.523H1066.47V370.831Z" fill="#F8D370"/>
<path d="M1105.86 359.89H1197.76V374.583C1197.76 377.344 1195.52 379.583 1192.76 379.583H1105.86V359.89Z" fill="#FAE19D"/>
<path d="M1178.07 308C1178.07 305.239 1180.3 303 1183.07 303H1449.39V322.693H1178.07V308Z" fill="#FAE19D"/>
<rect width="20" height="37" transform="matrix(-1 0 0 1 241 379)" fill="#00A7F6"/>
<rect width="19.6928" height="48.1378" transform="matrix(-1 0 0 1 446.006 321.693)" fill="#AAE7FC"/>
<rect width="19.6928" height="48.1378" transform="matrix(-1 0 0 1 446.006 369.831)" fill="#00A7F6"/>
<rect width="37.1974" height="39.3855" transform="matrix(-1 0 0 1 426.312 330.445)" fill="#00A7F6"/>
<path d="M389.115 330.445H359.918C355.5 330.445 351.918 334.027 351.918 338.445V369.831H389.115V330.445Z" fill="#0754BC"/>
<rect width="37.1974" height="39.3855" transform="matrix(-1 0 0 1 426.312 369.831)" fill="#AAE7FC"/>
<path d="M389.115 369.831H351.918V401.216C351.918 405.635 355.5 409.216 359.918 409.216H389.115V369.831Z" fill="#00A7F6"/>
<path d="M351.918 350.138H316.532C314.323 350.138 312.532 351.929 312.532 354.138V369.831H351.918V350.138Z" fill="#00A7F6"/>
<path d="M351.918 369.831H312.532V385.524C312.532 387.733 314.323 389.524 316.532 389.524H351.918V369.831Z" fill="#0754BC"/>
<path d="M313 359H226C223.239 359 221 361.239 221 364V379H313V359Z" fill="#AAE7FC"/>
<path d="M241 416H-30V436H236C238.761 436 241 433.761 241 431V416Z" fill="#AAE7FC"/>
<path d="M446.006 341.386H480.391C483.153 341.386 485.391 343.624 485.391 346.386V356.078C485.391 358.84 483.153 361.078 480.391 361.078H446.006V341.386Z" fill="#00A7F6"/>
<path d="M446.006 378.583H480.391C483.153 378.583 485.391 380.822 485.391 383.583V393.276C485.391 396.037 483.153 398.276 480.391 398.276H446.006V378.583Z" fill="#0754BC"/>
<path d="M557.49 367.2C555.31 367.2 553.13 366.52 551.97 365.52L552.87 363.5C553.99 364.4 555.77 365.04 557.49 365.04C559.67 365.04 560.59 364.26 560.59 363.22C560.59 360.2 552.27 362.18 552.27 356.98C552.27 354.72 554.07 352.8 557.91 352.8C559.59 352.8 561.35 353.24 562.57 354.04L561.75 356.06C560.49 355.32 559.11 354.96 557.89 354.96C555.73 354.96 554.85 355.8 554.85 356.86C554.85 359.84 563.15 357.9 563.15 363.04C563.15 365.28 561.33 367.2 557.49 367.2ZM566.748 354.56C565.828 354.56 565.148 353.9 565.148 353.06C565.148 352.22 565.828 351.56 566.748 351.56C567.668 351.56 568.348 352.18 568.348 353C568.348 353.88 567.688 354.56 566.748 354.56ZM565.488 367V356.32H567.988V367H565.488ZM571.269 367V352.16H573.769V367H571.269ZM581.13 356.2C584.21 356.2 585.99 357.66 585.99 360.74V367H583.63V365.7C583.03 366.62 581.87 367.14 580.27 367.14C577.83 367.14 576.29 365.8 576.29 363.94C576.29 362.16 577.49 360.76 580.73 360.76H583.49V360.6C583.49 359.14 582.61 358.28 580.83 358.28C579.63 358.28 578.39 358.68 577.59 359.34L576.61 357.52C577.75 356.64 579.41 356.2 581.13 356.2ZM580.79 365.32C582.01 365.32 583.07 364.76 583.49 363.66V362.42H580.91C579.21 362.42 578.75 363.06 578.75 363.84C578.75 364.74 579.51 365.32 580.79 365.32ZM595.259 356.2C597.819 356.2 599.719 357.66 599.719 360.88V367H597.219V361.2C597.219 359.3 596.279 358.38 594.679 358.38C592.899 358.38 591.699 359.46 591.699 361.6V367H589.199V352.16H591.699V357.56C592.519 356.68 593.779 356.2 595.259 356.2ZM610.95 367L607.25 362.42L605.39 364.18V367H602.89V352.16H605.39V361.12L610.57 356.32H613.57L609.11 360.8L613.99 367H610.95ZM619.49 356.2C622.57 356.2 624.35 357.66 624.35 360.74V367H621.99V365.7C621.39 366.62 620.23 367.14 618.63 367.14C616.19 367.14 614.65 365.8 614.65 363.94C614.65 362.16 615.85 360.76 619.09 360.76H621.85V360.6C621.85 359.14 620.97 358.28 619.19 358.28C617.99 358.28 616.75 358.68 615.95 359.34L614.97 357.52C616.11 356.64 617.77 356.2 619.49 356.2ZM619.15 365.32C620.37 365.32 621.43 364.76 621.85 363.66V362.42H619.27C617.57 362.42 617.11 363.06 617.11 363.84C617.11 364.74 617.87 365.32 619.15 365.32ZM633.618 356.2C636.178 356.2 638.078 357.66 638.078 360.88V367H635.578V361.2C635.578 359.3 634.638 358.38 633.038 358.38C631.258 358.38 630.058 359.46 630.058 361.6V367H627.558V356.32H629.938V357.7C630.758 356.72 632.058 356.2 633.618 356.2ZM653.497 367.2C649.217 367.2 646.017 364.18 646.017 360C646.017 355.82 649.217 352.8 653.517 352.8C655.797 352.8 657.757 353.62 659.057 355.14L657.377 356.72C656.357 355.62 655.097 355.08 653.637 355.08C650.737 355.08 648.637 357.12 648.637 360C648.637 362.88 650.737 364.92 653.637 364.92C655.097 364.92 656.357 364.38 657.377 363.26L659.057 364.86C657.757 366.38 655.797 367.2 653.497 367.2ZM665.717 367.14C662.437 367.14 660.037 364.86 660.037 361.66C660.037 358.46 662.437 356.2 665.717 356.2C669.037 356.2 671.417 358.46 671.417 361.66C671.417 364.86 669.037 367.14 665.717 367.14ZM665.717 365C667.537 365 668.897 363.7 668.897 361.66C668.897 359.62 667.537 358.32 665.717 358.32C663.917 358.32 662.557 359.62 662.557 361.66C662.557 363.7 663.917 365 665.717 365ZM679.728 356.2C682.848 356.2 685.148 358.34 685.148 361.66C685.148 364.98 682.848 367.14 679.728 367.14C678.268 367.14 677.028 366.64 676.188 365.62V367H673.808V352.16H676.308V357.62C677.168 356.66 678.368 356.2 679.728 356.2ZM679.448 365C681.248 365 682.608 363.7 682.608 361.66C682.608 359.62 681.248 358.32 679.448 358.32C677.648 358.32 676.268 359.62 676.268 361.66C676.268 363.7 677.648 365 679.448 365ZM691.462 356.2C694.542 356.2 696.322 357.66 696.322 360.74V367H693.962V365.7C693.362 366.62 692.202 367.14 690.602 367.14C688.162 367.14 686.622 365.8 686.622 363.94C686.622 362.16 687.822 360.76 691.062 360.76H693.822V360.6C693.822 359.14 692.942 358.28 691.162 358.28C689.962 358.28 688.722 358.68 687.922 359.34L686.942 357.52C688.082 356.64 689.742 356.2 691.462 356.2ZM691.122 365.32C692.342 365.32 693.402 364.76 693.822 363.66V362.42H691.242C689.542 362.42 689.082 363.06 689.082 363.84C689.082 364.74 689.842 365.32 691.122 365.32ZM715.218 359.72C716.718 360.2 717.738 361.38 717.738 363.2C717.738 365.6 715.858 367 712.258 367H705.298V353H711.858C715.218 353 717.018 354.42 717.018 356.64C717.018 358.08 716.298 359.14 715.218 359.72ZM711.578 355.04H707.898V358.9H711.578C713.378 358.9 714.398 358.26 714.398 356.98C714.398 355.68 713.378 355.04 711.578 355.04ZM712.098 364.96C714.058 364.96 715.118 364.34 715.118 362.94C715.118 361.54 714.058 360.92 712.098 360.92H707.898V364.96H712.098ZM730.313 361.72C730.313 361.92 730.293 362.22 730.273 362.46H721.893C722.193 364.02 723.493 365.02 725.353 365.02C726.553 365.02 727.493 364.64 728.253 363.86L729.593 365.4C728.633 366.54 727.133 367.14 725.293 367.14C721.713 367.14 719.393 364.84 719.393 361.66C719.393 358.48 721.733 356.2 724.913 356.2C728.033 356.2 730.313 358.38 730.313 361.72ZM724.913 358.2C723.293 358.2 722.113 359.24 721.873 360.8H727.933C727.733 359.26 726.553 358.2 724.913 358.2ZM738.634 356.2C741.754 356.2 744.054 358.34 744.054 361.66C744.054 364.98 741.754 367.14 738.634 367.14C737.174 367.14 735.934 366.64 735.094 365.62V367H732.714V352.16H735.214V357.62C736.074 356.66 737.274 356.2 738.634 356.2ZM738.354 365C740.154 365 741.514 363.7 741.514 361.66C741.514 359.62 740.154 358.32 738.354 358.32C736.554 358.32 735.174 359.62 735.174 361.66C735.174 363.7 736.554 365 738.354 365ZM756.465 361.72C756.465 361.92 756.445 362.22 756.425 362.46H748.045C748.345 364.02 749.645 365.02 751.505 365.02C752.705 365.02 753.645 364.64 754.405 363.86L755.745 365.4C754.785 366.54 753.285 367.14 751.445 367.14C747.865 367.14 745.545 364.84 745.545 361.66C745.545 358.48 747.885 356.2 751.065 356.2C754.185 356.2 756.465 358.38 756.465 361.72ZM751.065 358.2C749.445 358.2 748.265 359.24 748.025 360.8H754.085C753.885 359.26 752.705 358.2 751.065 358.2ZM761.247 357.88C761.967 356.76 763.267 356.2 765.047 356.2V358.58C764.827 358.54 764.647 358.52 764.467 358.52C762.567 358.52 761.367 359.64 761.367 361.82V367H758.867V356.32H761.247V357.88ZM771.189 356.2C774.269 356.2 776.049 357.66 776.049 360.74V367H773.689V365.7C773.089 366.62 771.929 367.14 770.329 367.14C767.889 367.14 766.349 365.8 766.349 363.94C766.349 362.16 767.549 360.76 770.789 360.76H773.549V360.6C773.549 359.14 772.669 358.28 770.889 358.28C769.689 358.28 768.449 358.68 767.649 359.34L766.669 357.52C767.809 356.64 769.469 356.2 771.189 356.2ZM770.849 365.32C772.069 365.32 773.129 364.76 773.549 363.66V362.42H770.969C769.269 362.42 768.809 363.06 768.809 363.84C768.809 364.74 769.569 365.32 770.849 365.32ZM785.177 356.2C788.297 356.2 790.597 358.36 790.597 361.66C790.597 364.98 788.297 367.14 785.177 367.14C783.817 367.14 782.617 366.68 781.757 365.7V370.88H779.257V356.32H781.637V357.72C782.477 356.7 783.717 356.2 785.177 356.2ZM784.897 365C786.697 365 788.057 363.7 788.057 361.66C788.057 359.62 786.697 358.32 784.897 358.32C783.097 358.32 781.717 359.62 781.717 361.66C781.717 363.7 783.097 365 784.897 365ZM796.911 356.2C799.991 356.2 801.771 357.66 801.771 360.74V367H799.411V365.7C798.811 366.62 797.651 367.14 796.051 367.14C793.611 367.14 792.071 365.8 792.071 363.94C792.071 362.16 793.271 360.76 796.511 360.76H799.271V360.6C799.271 359.14 798.391 358.28 796.611 358.28C795.411 358.28 794.171 358.68 793.371 359.34L792.391 357.52C793.531 356.64 795.191 356.2 796.911 356.2ZM796.571 365.32C797.791 365.32 798.851 364.76 799.271 363.66V362.42H796.691C794.991 362.42 794.531 363.06 794.531 363.84C794.531 364.74 795.291 365.32 796.571 365.32ZM815.087 367.2C812.907 367.2 810.727 366.52 809.567 365.52L810.467 363.5C811.587 364.4 813.367 365.04 815.087 365.04C817.267 365.04 818.187 364.26 818.187 363.22C818.187 360.2 809.867 362.18 809.867 356.98C809.867 354.72 811.667 352.8 815.507 352.8C817.187 352.8 818.947 353.24 820.167 354.04L819.347 356.06C818.087 355.32 816.707 354.96 815.487 354.96C813.327 354.96 812.447 355.8 812.447 356.86C812.447 359.84 820.747 357.9 820.747 363.04C820.747 365.28 818.927 367.2 815.087 367.2ZM827.165 356.2C830.245 356.2 832.025 357.66 832.025 360.74V367H829.665V365.7C829.065 366.62 827.905 367.14 826.305 367.14C823.865 367.14 822.325 365.8 822.325 363.94C822.325 362.16 823.525 360.76 826.765 360.76H829.525V360.6C829.525 359.14 828.645 358.28 826.865 358.28C825.665 358.28 824.425 358.68 823.625 359.34L822.645 357.52C823.785 356.64 825.445 356.2 827.165 356.2ZM826.825 365.32C828.045 365.32 829.105 364.76 829.525 363.66V362.42H826.945C825.245 362.42 824.785 363.06 824.785 363.84C824.785 364.74 825.545 365.32 826.825 365.32ZM839.314 356.2C842.394 356.2 844.174 357.66 844.174 360.74V367H841.814V365.7C841.214 366.62 840.054 367.14 838.454 367.14C836.014 367.14 834.474 365.8 834.474 363.94C834.474 362.16 835.674 360.76 838.914 360.76H841.674V360.6C841.674 359.14 840.794 358.28 839.014 358.28C837.814 358.28 836.574 358.68 835.774 359.34L834.794 357.52C835.934 356.64 837.594 356.2 839.314 356.2ZM838.974 365.32C840.194 365.32 841.254 364.76 841.674 363.66V362.42H839.094C837.394 362.42 836.934 363.06 836.934 363.84C836.934 364.74 837.694 365.32 838.974 365.32ZM853.102 364.64L853.802 366.42C853.202 366.9 852.302 367.14 851.402 367.14C849.062 367.14 847.722 365.9 847.722 363.54V358.4H845.962V356.4H847.722V353.96H850.222V356.4H853.082V358.4H850.222V363.48C850.222 364.52 850.742 365.08 851.702 365.08C852.222 365.08 852.722 364.94 853.102 364.64ZM861.626 367V353H864.226V364.8H871.546V367H861.626ZM877.536 356.2C880.616 356.2 882.396 357.66 882.396 360.74V367H880.036V365.7C879.436 366.62 878.276 367.14 876.676 367.14C874.236 367.14 872.696 365.8 872.696 363.94C872.696 362.16 873.896 360.76 877.136 360.76H879.896V360.6C879.896 359.14 879.016 358.28 877.236 358.28C876.036 358.28 874.796 358.68 873.996 359.34L873.016 357.52C874.156 356.64 875.816 356.2 877.536 356.2ZM877.196 365.32C878.416 365.32 879.476 364.76 879.896 363.66V362.42H877.316C875.616 362.42 875.156 363.06 875.156 363.84C875.156 364.74 875.916 365.32 877.196 365.32ZM893.923 356.32H896.303V365.38C896.303 369.26 894.283 371.02 890.543 371.02C888.543 371.02 886.562 370.5 885.343 369.5L886.463 367.62C887.403 368.4 888.923 368.9 890.403 368.9C892.763 368.9 893.803 367.82 893.803 365.66V365.1C892.923 366.06 891.663 366.52 890.223 366.52C887.163 366.52 884.823 364.44 884.823 361.34C884.823 358.24 887.163 356.2 890.223 356.2C891.723 356.2 893.043 356.68 893.923 357.74V356.32ZM890.603 364.4C892.483 364.4 893.843 363.16 893.843 361.34C893.843 359.54 892.483 358.32 890.603 358.32C888.703 358.32 887.343 359.54 887.343 361.34C887.343 363.16 888.703 364.4 890.603 364.4ZM900.849 354.56C899.929 354.56 899.249 353.9 899.249 353.06C899.249 352.22 899.929 351.56 900.849 351.56C901.769 351.56 902.449 352.18 902.449 353C902.449 353.88 901.789 354.56 900.849 354.56ZM899.589 367V356.32H902.089V367H899.589ZM669.671 391V379.2H665.031V377H676.911V379.2H672.271V391H669.671ZM687.569 385.72C687.569 385.92 687.549 386.22 687.529 386.46H679.149C679.449 388.02 680.749 389.02 682.609 389.02C683.809 389.02 684.749 388.64 685.509 387.86L686.849 389.4C685.889 390.54 684.389 391.14 682.549 391.14C678.969 391.14 676.649 388.84 676.649 385.66C676.649 382.48 678.989 380.2 682.169 380.2C685.289 380.2 687.569 382.38 687.569 385.72ZM682.169 382.2C680.549 382.2 679.369 383.24 679.129 384.8H685.189C684.989 383.26 683.809 382.2 682.169 382.2ZM692.35 381.88C693.07 380.76 694.37 380.2 696.15 380.2V382.58C695.93 382.54 695.75 382.52 695.57 382.52C693.67 382.52 692.47 383.64 692.47 385.82V391H689.97V380.32H692.35V381.88ZM699.531 378.56C698.611 378.56 697.931 377.9 697.931 377.06C697.931 376.22 698.611 375.56 699.531 375.56C700.451 375.56 701.131 376.18 701.131 377C701.131 377.88 700.471 378.56 699.531 378.56ZM698.271 391V380.32H700.771V391H698.271ZM717.532 380.2C720.112 380.2 721.912 381.66 721.912 384.88V391H719.412V385.2C719.412 383.3 718.532 382.38 717.012 382.38C715.372 382.38 714.232 383.46 714.232 385.58V391H711.732V385.2C711.732 383.3 710.852 382.38 709.332 382.38C707.672 382.38 706.552 383.46 706.552 385.58V391H704.052V380.32H706.432V381.68C707.232 380.72 708.472 380.2 709.932 380.2C711.492 380.2 712.792 380.78 713.532 381.98C714.392 380.88 715.832 380.2 717.532 380.2ZM729.187 380.2C732.267 380.2 734.047 381.66 734.047 384.74V391H731.687V389.7C731.087 390.62 729.927 391.14 728.327 391.14C725.887 391.14 724.347 389.8 724.347 387.94C724.347 386.16 725.547 384.76 728.787 384.76H731.547V384.6C731.547 383.14 730.667 382.28 728.887 382.28C727.687 382.28 726.447 382.68 725.647 383.34L724.667 381.52C725.807 380.64 727.467 380.2 729.187 380.2ZM728.847 389.32C730.067 389.32 731.127 388.76 731.547 387.66V386.42H728.967C727.267 386.42 726.807 387.06 726.807 387.84C726.807 388.74 727.567 389.32 728.847 389.32ZM745.315 391L741.615 386.42L739.755 388.18V391H737.255V376.16H739.755V385.12L744.935 380.32H747.935L743.475 384.8L748.355 391H745.315ZM753.855 380.2C756.935 380.2 758.715 381.66 758.715 384.74V391H756.355V389.7C755.755 390.62 754.595 391.14 752.995 391.14C750.555 391.14 749.015 389.8 749.015 387.94C749.015 386.16 750.215 384.76 753.455 384.76H756.215V384.6C756.215 383.14 755.335 382.28 753.555 382.28C752.355 382.28 751.115 382.68 750.315 383.34L749.335 381.52C750.475 380.64 752.135 380.2 753.855 380.2ZM753.515 389.32C754.735 389.32 755.795 388.76 756.215 387.66V386.42H753.635C751.935 386.42 751.475 387.06 751.475 387.84C751.475 388.74 752.235 389.32 753.515 389.32ZM765.223 391.14C763.443 391.14 761.663 390.62 760.703 389.94L761.663 388.04C762.603 388.66 764.043 389.1 765.383 389.1C766.963 389.1 767.623 388.66 767.623 387.92C767.623 385.88 761.023 387.8 761.023 383.54C761.023 381.52 762.843 380.2 765.723 380.2C767.143 380.2 768.763 380.54 769.723 381.12L768.763 383.02C767.743 382.42 766.723 382.22 765.703 382.22C764.183 382.22 763.463 382.72 763.463 383.42C763.463 385.58 770.063 383.66 770.063 387.84C770.063 389.84 768.223 391.14 765.223 391.14ZM773.476 378.56C772.556 378.56 771.876 377.9 771.876 377.06C771.876 376.22 772.556 375.56 773.476 375.56C774.396 375.56 775.076 376.18 775.076 377C775.076 377.88 774.416 378.56 773.476 378.56ZM772.216 391V380.32H774.716V391H772.216ZM784.057 380.2C786.617 380.2 788.517 381.66 788.517 384.88V391H786.017V385.2C786.017 383.3 785.077 382.38 783.477 382.38C781.697 382.38 780.497 383.46 780.497 385.6V391H777.997V376.16H780.497V381.56C781.317 380.68 782.577 380.2 784.057 380.2Z" fill="#0754BC"/>
<path d="M491 316V287H522C516.022 308.165 508.293 313.035 491 316Z" fill="#00A7F6"/>
<path d="M330 447V422H358C352.601 440.246 345.619 444.444 330 447Z" fill="#AAE7FC"/>
<path d="M951 411L951 436L923 436C928.399 417.754 935.381 413.556 951 411Z" fill="#F4B527"/>
<path d="M1035 312L1016 312L1016 291C1029.87 295.05 1033.06 300.285 1035 312Z" fill="#F8D370"/>
</svg>
