<svg width="172" height="70" viewBox="0 0 172 70" fill="none" xmlns="http://www.w3.org/2000/svg">
<path d="M140.211 70C140.039 69.305 140.087 68.9128 141.037 68.9816C142.385 69.0848 143.342 67.5709 142.812 66.3185C141.828 63.9858 140.837 61.6531 139.839 59.2859C140.555 59.0451 140.982 59.1346 141.278 59.9053C141.986 61.7907 142.791 63.6417 143.645 65.7268C144.051 64.6051 144.388 63.683 144.718 62.7678C145.048 61.8595 145.434 60.965 145.695 60.036C145.909 59.2791 146.273 58.9763 147.099 59.2653C146.321 61.3365 145.544 63.4147 144.766 65.4859C144.505 66.1809 144.216 66.8622 143.989 67.564C143.631 68.6582 143.018 69.5252 141.931 69.9931H140.211V70Z" fill="white"/>
<path d="M117.523 38.7181C117.523 42.0073 117.51 45.2896 117.537 48.5788C117.537 49.1981 117.413 49.4321 116.739 49.4046C115.452 49.3495 114.159 49.3495 112.879 49.4046C112.211 49.4321 112.012 49.2532 112.018 48.5651C112.053 43.4523 112.018 38.3327 112.06 33.22C112.067 32.3667 111.819 32.1947 111.014 32.2153C108.585 32.2704 106.149 32.2635 103.713 32.2153C102.977 32.2015 102.749 32.3667 102.756 33.1443C102.798 38.257 102.763 43.3766 102.791 48.4894C102.791 49.1775 102.653 49.4459 101.91 49.4046C100.685 49.3426 99.4465 49.3426 98.2217 49.4046C97.4854 49.439 97.2514 49.2669 97.2583 48.4825C97.2996 43.3697 97.2583 38.2501 97.2996 33.1374C97.2996 32.3461 97.0656 32.1465 96.3431 32.2222C95.8064 32.2772 95.249 32.1947 94.7122 32.2428C94.0792 32.3048 93.9347 32.0433 93.9691 31.4653C94.0104 30.5845 94.0104 29.6899 93.9691 28.8091C93.9484 28.2724 94.0792 28.0315 94.671 28.0797C95.3247 28.1279 95.9853 28.0659 96.6459 28.1004C97.1207 28.121 97.2858 27.9834 97.3065 27.481C97.3409 26.3663 97.4578 25.2584 97.7881 24.1849C98.7722 20.9921 101.174 19.5126 104.256 18.9002C107.119 18.3359 110.016 18.5148 112.899 18.6387C113.759 18.6731 114.606 18.8038 115.466 18.8382C115.968 18.8589 116.078 19.0791 116.065 19.5264C116.037 20.5241 116.03 21.5288 116.065 22.5266C116.085 23.0633 115.913 23.2009 115.383 23.1665C113.56 23.0427 111.729 22.9463 109.899 22.8844C108.722 22.8431 107.559 22.9601 106.397 23.1665C103.988 23.6069 102.77 25.1001 102.784 27.5292C102.784 28.2036 103.204 28.0797 103.582 28.0797C107.559 28.0797 111.544 28.0797 115.521 28.0797C116.865 28.0797 117.537 28.7403 117.537 30.0615C117.537 32.9447 117.537 35.8348 117.537 38.7181H117.523Z" fill="white"/>
<path d="M0.859375 18.0263C1.20344 17.8611 1.56814 17.8542 1.93972 17.8542C21.5787 17.8542 41.2177 17.8542 60.8566 17.8542C61.2695 17.8542 61.7718 17.7235 61.9576 18.2671C62.1296 18.7557 61.6824 18.9759 61.414 19.2442C57.8564 22.8087 54.2851 26.3525 50.7344 29.9239C50.0669 30.5982 49.3237 30.9079 48.3741 30.9079C37.0683 30.8941 25.7556 30.8941 14.4498 30.9079C13.5002 30.9079 12.7639 30.6051 12.0895 29.9239C8.36677 26.1736 4.60963 22.4509 0.859375 18.7144C0.859375 18.4873 0.859375 18.2602 0.859375 18.0263Z" fill="white"/>
<path d="M0.859375 13.3952C2.87557 11.4134 4.89176 9.4385 6.90107 7.44983C9.19252 5.17215 11.4702 2.88071 13.7548 0.603033C14.5667 -0.208949 15.1035 -0.202068 15.943 0.630558C20.0511 4.72488 24.1591 8.82607 28.2603 12.9342C28.5287 13.2025 28.9622 13.4365 28.7696 13.925C28.57 14.4274 28.0814 14.3654 27.6617 14.3654C23.4573 14.3654 19.2528 14.3654 15.0415 14.3654C10.7477 14.3654 6.46068 14.3654 2.1668 14.3654C1.70576 14.3654 1.24472 14.3861 0.859375 14.0764V13.3883V13.3952Z" fill="white"/>
<path d="M47.9339 14.3723C43.7846 14.3723 39.6352 14.3723 35.4858 14.3723C35.2587 14.3723 35.0248 14.3792 34.7977 14.3723C34.4743 14.3517 34.1578 14.2898 34.0408 13.9251C33.9376 13.6016 34.1371 13.3952 34.3435 13.1819C36.1464 11.3859 37.9424 9.58302 39.7384 7.78702C42.1055 5.41989 44.4658 3.05963 46.8398 0.699379C47.755 -0.215822 48.2505 -0.215822 49.1519 0.678735C53.2393 4.75241 57.3268 8.83296 61.4004 12.9204C61.6895 13.2094 62.1711 13.4571 61.9441 13.9732C61.7307 14.4549 61.2284 14.3723 60.8087 14.3723C56.5148 14.3723 52.2278 14.3723 47.9339 14.3723Z" fill="white"/>
<path d="M31.4255 34.4311C35.7194 34.4311 40.0133 34.4311 44.3072 34.4311C44.6856 34.4311 45.1604 34.2866 45.3531 34.7889C45.5389 35.2706 45.1329 35.5114 44.8576 35.7867C40.7496 39.8879 36.6415 43.9891 32.5334 48.0903C31.6457 48.9711 31.2122 48.978 30.3039 48.0765C26.1683 43.9616 22.0465 39.8397 17.9177 35.7179C17.6631 35.4633 17.2984 35.2293 17.4911 34.782C17.6838 34.3347 18.1035 34.4311 18.4613 34.4311C22.7827 34.4311 27.1041 34.4311 31.4255 34.4311Z" fill="white"/>
<path d="M124.796 34.2384C124.796 29.4972 124.81 24.7561 124.783 20.0149C124.783 19.3337 124.913 19.0516 125.67 19.086C126.985 19.1479 128.299 19.1273 129.62 19.086C130.157 19.0722 130.295 19.2511 130.295 19.7672C130.281 29.4216 130.281 39.0759 130.295 48.7302C130.295 49.2738 130.109 49.3977 129.6 49.3908C128.285 49.3633 126.964 49.3426 125.65 49.3908C124.975 49.4183 124.783 49.2188 124.783 48.5375C124.81 43.7689 124.796 39.0002 124.796 34.2315V34.2384Z" fill="white"/>
<path d="M74.3988 65.7406C75.5962 62.7128 76.6971 59.9122 77.8188 57.1115C77.9289 56.8432 77.9358 56.4922 78.328 56.389C79.1881 56.1688 79.5322 56.4165 79.5322 57.2904C79.5322 60.2631 79.5322 63.2358 79.5391 66.2085C79.5391 66.6626 79.5184 66.9517 78.9198 66.9379C78.3211 66.9241 78.383 66.587 78.383 66.2085C78.383 63.6968 78.383 61.1783 78.383 58.6392C78.0665 58.708 78.0803 58.9695 78.0046 59.1552C77.0412 61.5361 76.0778 63.9102 75.1351 66.2979C74.9768 66.7039 74.8117 66.9517 74.2956 66.931C73.8208 66.9172 73.6832 66.7039 73.5249 66.3255C72.5065 63.7932 71.4606 61.2678 70.2839 58.7424C70.2632 58.9695 70.2288 59.1965 70.2288 59.4305C70.2288 61.6875 70.2288 63.9446 70.2288 66.2016C70.2288 66.5801 70.2907 66.931 69.6921 66.9241C69.0315 66.9104 69.231 66.4631 69.231 66.1466C69.2173 63.1739 69.2173 60.2012 69.231 57.2285C69.231 56.9326 68.9558 56.4165 69.6026 56.3821C70.1049 56.3546 70.5729 56.2651 70.8344 56.9601C71.7083 59.2516 72.6579 61.5155 73.5868 63.7863C73.8208 64.3643 74.0685 64.9355 74.3988 65.7337V65.7406Z" fill="white"/>
<path d="M118.356 61.7563C119.898 60.091 121.301 58.6391 122.63 57.1115C123.187 56.4715 123.772 56.2307 124.694 56.4784C123.751 57.49 122.843 58.4464 121.955 59.4305C121.446 59.9947 120.51 60.4695 120.558 61.1508C120.6 61.7563 121.405 62.3137 121.879 62.8848C122.974 64.1922 124.068 65.4928 125.217 66.8553C124.343 67.0204 123.744 66.9378 123.201 66.2153C122.21 64.8941 121.074 63.6693 120.035 62.3825C119.712 61.9834 119.519 61.9146 119.127 62.3206C118.611 62.8642 118.26 63.394 118.343 64.1922C118.418 64.8666 118.343 65.5616 118.363 66.2497C118.377 66.6695 118.349 66.9447 117.792 66.9378C117.248 66.9378 117.207 66.6901 117.207 66.2566C117.221 63.2014 117.214 60.1461 117.207 57.084C117.207 56.6848 117.186 56.3752 117.764 56.3683C118.391 56.3545 118.363 56.7055 118.363 57.1321C118.356 58.5841 118.363 60.036 118.363 61.7494L118.356 61.7563Z" fill="white"/>
<path d="M135.421 63.0087C135.421 61.9215 135.449 60.8342 135.415 59.7539C135.387 59.0451 135.924 58.9694 136.199 59.2515C136.591 59.6575 136.86 59.4305 137.169 59.3204C137.658 59.1414 138.146 59.0107 138.663 58.9419C138.924 58.9075 139.199 58.8456 139.199 59.2584C139.199 59.5612 139.282 59.8296 138.78 59.9053C136.488 60.2356 136.488 60.2562 136.488 62.5476C136.488 63.7175 136.502 64.8873 136.488 66.0639C136.488 66.4355 136.701 66.9516 135.944 66.9379C135.243 66.9241 135.449 66.4493 135.442 66.1052C135.421 65.0799 135.442 64.0477 135.442 63.0224L135.421 63.0087Z" fill="white"/>
<path d="M101.187 63.0224C101.187 64.1372 101.167 65.2451 101.194 66.3598C101.208 66.8209 101.036 66.9379 100.602 66.9379C100.155 66.9379 100.093 66.7314 100.093 66.3598C100.1 64.1372 100.107 61.9146 100.093 59.6919C100.093 59.2791 100.252 59.1552 100.644 59.1552C101.043 59.1552 101.201 59.2722 101.194 59.6919C101.174 60.8067 101.187 61.9146 101.187 63.0293V63.0224Z" fill="white"/>
<path d="M101.229 56.5748C101.346 57.1115 101.016 57.1253 100.596 57.1459C100.08 57.1735 100.011 56.9464 99.9903 56.506C99.9627 55.9349 100.224 55.8798 100.692 55.866C101.263 55.8523 101.27 56.1619 101.229 56.5748Z" fill="white"/>
<path fill-rule="evenodd" clip-rule="evenodd" d="M65.2624 47.5136C65.041 48.128 64.8169 48.7498 64.586 49.3839L64.5723 49.3908C65.1023 49.3908 65.6224 49.3873 66.1356 49.3839C67.3949 49.3755 68.6122 49.3674 69.8295 49.4114C70.4901 49.4321 70.7172 49.1568 70.8961 48.6063C71.1714 47.7771 71.4574 46.9524 71.7433 46.1281C72.0648 45.2011 72.3862 44.2746 72.6921 43.3422C72.8572 42.8399 73.1118 42.7091 73.6142 42.7091C76.9653 42.7298 80.3096 42.7229 83.6607 42.7091C84.1424 42.7091 84.4245 42.7917 84.5966 43.3216C84.9308 44.3596 85.292 45.3887 85.6532 46.4178C85.9241 47.1896 86.195 47.9615 86.4545 48.7371C86.6197 49.2188 86.8398 49.4114 87.3697 49.3977C89.0005 49.3633 90.6314 49.3564 92.2622 49.3977C92.9435 49.4183 93.0054 49.2325 92.7783 48.6339C91.971 46.4826 91.1815 44.3224 90.3922 42.1631C89.9773 41.0278 89.5624 39.8928 89.1451 38.7593C88.4834 36.9546 87.8198 35.1499 87.156 33.3447C85.666 29.2927 84.1752 25.2385 82.7042 21.1779C82.5047 20.6136 82.2363 20.4484 81.6583 20.4622C79.7178 20.4966 77.7704 20.4897 75.823 20.4622C75.3414 20.4553 75.1143 20.6136 74.9491 21.0609C72.9127 26.6331 70.8696 32.2019 68.8268 37.7698C67.9634 40.1228 67.1002 42.4757 66.2375 44.8286C65.9095 45.7182 65.5889 46.6079 65.2624 47.5136ZM76.0651 33.3071C75.5215 34.8939 74.9755 36.4876 74.4263 38.0919C75.15 38.0919 75.8665 38.0903 76.5776 38.0888C78.4605 38.0847 80.3055 38.0807 82.147 38.1056C82.8626 38.1125 82.8558 37.8923 82.6562 37.328C81.8632 35.0617 81.0838 32.7899 80.3044 30.5178C79.8461 29.1819 79.3878 27.8459 78.9266 26.5108C78.9125 26.4685 78.9041 26.421 78.8955 26.3722C78.8663 26.2064 78.8346 26.0266 78.5688 25.9947C77.7378 28.425 76.9043 30.8579 76.0651 33.3071Z" fill="white"/>
<path fill-rule="evenodd" clip-rule="evenodd" d="M151.258 48.2176C150.924 48.3237 150.595 48.4303 150.269 48.5358C148.508 49.1068 146.858 49.642 145.124 49.845C142.605 50.1409 140.176 49.9826 138.222 48.0971C136.144 46.0878 135.869 43.5968 136.612 40.9682C137.334 38.4015 139.254 37.1285 141.786 36.7087C144.346 36.289 146.927 36.4817 149.493 36.7156C150.374 36.7982 150.539 36.5161 150.491 35.7041C150.354 33.2406 149.328 32.0708 146.865 31.7267C144.436 31.3896 142.007 31.6098 139.591 31.8575C138.91 31.9263 138.745 31.7818 138.779 31.1281C138.817 30.4141 138.808 29.6916 138.799 28.9706C138.797 28.7744 138.795 28.5783 138.793 28.3825C138.793 28.0659 138.821 27.8389 139.234 27.8113C139.619 27.7836 140.005 27.7543 140.391 27.7251C143.542 27.4862 146.693 27.2473 149.844 27.8113C153.615 28.4926 155.625 30.6395 155.859 34.4861C156.046 37.5277 156.018 40.572 155.99 43.6156C155.973 45.3714 155.957 47.127 155.982 48.8816C155.982 49.3357 155.769 49.3908 155.404 49.3839C155.249 49.3818 155.094 49.3793 154.939 49.3769C154.091 49.3634 153.247 49.3501 152.397 49.3908C151.596 49.4319 150.986 49.3571 151.258 48.2176ZM150.491 43.6656V42.6403C150.491 42.4319 150.49 42.2226 150.488 42.0131C150.485 41.5934 150.482 41.1726 150.491 40.7549C150.498 40.4177 150.409 40.1975 150.03 40.1837C149.55 40.1619 149.069 40.1274 148.589 40.0928C147.101 39.9858 145.614 39.8789 144.126 40.1493C142.419 40.459 141.559 41.4774 141.601 43.0738C141.649 44.746 142.64 45.8126 144.346 46.019C145.901 46.2061 147.384 45.8427 148.867 45.479C148.966 45.4548 149.064 45.4306 149.163 45.4066C150.491 45.0832 150.491 45.0694 150.491 43.6656Z" fill="white"/>
<path fill-rule="evenodd" clip-rule="evenodd" d="M169.634 29.456C171.114 28.1348 171.341 26.2975 171.32 24.185H171.327C171.382 22.8294 171.21 21.2536 170.206 19.953C168.575 17.8336 166.283 17.579 163.854 18.0194C161.446 18.4529 160.07 19.8911 159.664 22.272C159.457 23.4831 159.423 24.7011 159.588 25.9328C159.87 28.0453 160.751 29.7587 162.85 30.4537C165.231 31.2382 167.625 31.2382 169.634 29.456ZM160.455 24.2468V24.2537L160.448 24.2468H160.455ZM160.455 23.7376V24.2468H160.49C160.49 24.3998 160.485 24.5536 160.48 24.7075C160.469 25.0382 160.459 25.3701 160.496 25.6988C160.71 27.4604 161.308 29.0499 163.153 29.6555C165.148 30.3161 167.157 30.3298 168.953 28.9811C169.421 28.637 169.738 28.1347 169.924 27.5911C170.639 25.5267 170.66 23.4417 169.972 21.3705C169.648 20.414 169.022 19.6777 168.107 19.2304C164.199 17.3312 160.607 19.4438 160.455 23.7376Z" fill="white"/>
<path fill-rule="evenodd" clip-rule="evenodd" d="M97.0953 62.8669C97.0975 62.4033 97.0998 61.9398 97.0998 61.477C97.0998 61.4783 97.0998 61.4797 97.0998 61.481V61.4741C97.0998 61.4751 97.0998 61.476 97.0998 61.477C97.0998 60.9281 97.0982 60.3784 97.0967 59.8285C97.0937 58.7252 97.0906 57.6209 97.0998 56.5197C97.1067 56.1137 97.0516 55.8935 96.5561 55.8935C96.0332 55.8935 96.0263 56.155 96.0332 56.5334C96.0387 56.7839 96.0354 57.0344 96.0321 57.2849C96.0271 57.6606 96.0222 58.0363 96.0469 58.412C96.0882 59.0657 95.9919 59.2928 95.2281 59.1001C93.845 58.7492 92.4756 58.8524 91.3746 59.8984C90.0947 61.1232 89.847 64.1303 90.831 65.7611C91.6636 67.1305 93.1568 67.4677 95.3519 66.7864C95.3795 66.7727 95.407 66.7589 95.4345 66.7589C95.5068 66.7474 95.5752 66.7261 95.6423 66.7052C95.8561 66.6385 96.0567 66.576 96.3291 66.8484C96.5974 67.1099 97.1273 67.0686 97.1135 66.3529C97.084 65.1928 97.0897 64.0291 97.0953 62.8669ZM96.0409 63.4019C96.044 63.259 96.047 63.1162 96.047 62.9743H96.0401V60.7448C96.0401 60.7246 96.0403 60.7046 96.0406 60.6847C96.0428 60.4871 96.045 60.303 95.8199 60.153C94.6983 59.3892 92.3243 59.8709 91.7738 61.0613C91.1476 62.4238 91.1751 63.8482 91.8426 65.1969C92.3311 66.1878 93.4046 66.353 94.9598 66.0571C96.1227 65.83 96.1089 65.1212 96.047 64.2611C96.0286 63.9764 96.0348 63.6887 96.0409 63.4019Z" fill="white"/>
<path fill-rule="evenodd" clip-rule="evenodd" d="M85.1297 63.2701C85.3534 63.2667 85.5772 63.2633 85.8011 63.2633H85.8079C86.0648 63.2633 86.3217 63.2641 86.5786 63.2649C87.0924 63.2664 87.6062 63.2679 88.12 63.2633C88.1517 63.2633 88.1839 63.2649 88.2163 63.2666C88.3954 63.2755 88.5783 63.2847 88.6774 63.0225C89.2073 61.5637 87.9962 59.3961 86.4204 59.0245C84.5762 58.5841 82.9385 59.3342 82.3054 60.91C81.4246 63.0775 82.037 65.8507 83.5784 66.7177C83.5993 66.7291 83.6196 66.741 83.6398 66.7528C83.6931 66.7839 83.7457 66.8147 83.8055 66.8347C85.285 67.3645 86.7369 67.0549 88.1888 66.7108C88.5436 66.6221 88.4901 66.3059 88.4472 66.0523C88.4435 66.0304 88.4398 66.009 88.4366 65.9883C88.3897 65.6759 88.2089 65.7496 88.0462 65.8158C87.9939 65.8372 87.9434 65.8577 87.8998 65.8644C87.6438 65.9007 87.3877 65.9471 87.1313 65.9935C86.6574 66.0794 86.1825 66.1655 85.7047 66.1878C84.184 66.2567 83.3101 65.4722 83.0761 63.9652C82.9935 63.4629 83.083 63.222 83.661 63.2564C84.1481 63.2848 84.6384 63.2774 85.1297 63.2701ZM84.852 62.4224C85.0237 62.4266 85.1956 62.4307 85.3675 62.4307L85.3743 62.4169C85.5376 62.4169 85.7009 62.4132 85.8639 62.4095C86.2439 62.4008 86.6228 62.3922 86.9983 62.4307C87.6658 62.4995 87.6795 62.1554 87.597 61.6669C87.3768 60.3938 86.6474 59.747 85.3881 59.7401C84.1426 59.7332 83.4201 60.3732 83.1311 61.6393C83.0003 62.2242 83.0691 62.4995 83.7435 62.4376C84.1105 62.4046 84.4807 62.4135 84.852 62.4224Z" fill="white"/>
<path fill-rule="evenodd" clip-rule="evenodd" d="M132.615 64.8134C132.614 64.5332 132.614 64.2411 132.614 63.9308L132.621 63.9377C132.606 63.6497 132.61 63.343 132.615 63.0241C132.623 62.4364 132.631 61.8073 132.524 61.1783C132.311 59.9397 131.65 59.2378 130.405 59.0382C129.656 58.9171 128.898 58.9546 128.142 58.9921C127.953 59.0014 127.765 59.0107 127.577 59.0176C127.167 59.0306 127.163 59.2647 127.158 59.5459C127.158 59.5623 127.157 59.5789 127.157 59.5956C127.15 59.9741 127.322 59.981 127.639 59.9534C128.292 59.8984 128.953 59.864 129.607 59.8984C130.907 59.9672 131.423 60.5384 131.533 61.832C131.575 62.3275 131.458 62.4995 130.942 62.4513C130.033 62.3688 129.118 62.2931 128.203 62.4513C126.957 62.6646 126.242 63.5798 126.283 64.8873C126.324 66.1052 127.143 66.9723 128.368 67.0893C129.235 67.1787 130.074 67.0342 130.9 66.7658C130.941 66.7528 130.981 66.7382 131.021 66.7237C131.253 66.639 131.468 66.5603 131.774 66.8484C132.173 67.22 132.607 66.9035 132.614 66.3117C132.618 65.8263 132.617 65.341 132.615 64.8134ZM130.336 66.0777C131.21 65.9057 131.815 65.5891 131.513 64.6877C131.513 63.4009 131.513 63.3527 131.169 63.3114C131.074 63.3011 130.98 63.2904 130.886 63.2796C130.099 63.1896 129.312 63.0996 128.519 63.2839C127.645 63.4904 127.281 63.9376 127.315 64.784C127.35 65.6098 127.859 66.1465 128.719 66.2291C129.265 66.2837 129.791 66.1826 130.323 66.0802L130.336 66.0777Z" fill="white"/>
<path fill-rule="evenodd" clip-rule="evenodd" d="M154.482 64.7079C154.486 64.4578 154.489 64.2077 154.489 63.9583L154.462 63.9652V61.6531V61.481C154.386 60.2287 153.78 59.4511 152.59 59.1277C151.742 58.8974 150.88 58.9513 150.02 59.0051C149.826 59.0172 149.632 59.0293 149.438 59.0382C149.057 59.0555 149.073 59.3052 149.088 59.5396C149.091 59.5847 149.094 59.6291 149.094 59.6713C149.088 59.9829 149.266 59.969 149.48 59.9523C149.507 59.9502 149.534 59.9481 149.562 59.9465C149.671 59.9411 149.78 59.9351 149.889 59.9292C150.468 59.8975 151.046 59.8658 151.62 59.9121C152.81 60.0016 153.347 60.614 153.429 61.7838C153.464 62.2793 153.381 62.5201 152.796 62.4582C151.915 62.3618 151.028 62.3068 150.147 62.4513C148.895 62.6508 148.117 63.5798 148.165 64.8391C148.213 66.0983 149.046 66.986 150.298 67.0961C151.172 67.1787 152.005 67.0273 152.831 66.7589C152.867 66.7466 152.904 66.7334 152.939 66.7202C153.183 66.6304 153.406 66.5482 153.718 66.8484C153.994 67.1167 154.53 67.0617 154.496 66.3529C154.468 65.8089 154.475 65.2583 154.482 64.7079ZM152.246 66.0708C153.092 65.8988 153.746 65.6236 153.402 64.5294C153.335 64.3937 153.375 64.2122 153.414 64.0303C153.48 63.7236 153.547 63.416 153.106 63.3252C152.225 63.1463 151.296 63.0569 150.388 63.2839C149.556 63.4973 149.136 64.0202 149.191 64.8047C149.246 65.5547 149.776 66.1259 150.553 66.2153C151.124 66.2842 151.682 66.1878 152.246 66.0708Z" fill="white"/>
<path fill-rule="evenodd" clip-rule="evenodd" d="M109.99 64.609C109.993 64.3459 109.995 64.0829 109.995 63.8207H109.981C109.981 63.5669 109.984 63.3124 109.987 63.0577C109.993 62.4837 109.998 61.9085 109.975 61.3366C109.933 60.3319 109.431 59.5956 108.488 59.2309C107.537 58.8627 106.548 58.9282 105.56 58.9935C105.348 59.0076 105.136 59.0216 104.924 59.0314C104.603 59.0421 104.615 59.2482 104.626 59.4493C104.629 59.507 104.633 59.5642 104.628 59.6163C104.607 59.9259 104.752 59.9672 105.048 59.9466C105.729 59.8915 106.417 59.8502 107.098 59.8915C108.364 59.9741 108.936 60.6416 108.956 61.8871C108.963 62.3412 108.839 62.4857 108.378 62.4444C107.47 62.3687 106.548 62.293 105.639 62.4444C104.38 62.6577 103.671 63.5592 103.72 64.8735C103.768 66.119 104.545 66.9585 105.784 67.0824C106.623 67.1649 107.429 67.0342 108.234 66.7865C108.295 66.7682 108.356 66.7441 108.417 66.7198C108.678 66.616 108.942 66.5107 109.266 66.8622C109.486 67.103 110.03 67.0548 110.002 66.3874C109.978 65.7964 109.984 65.2021 109.99 64.609ZM107.702 66.0814C108.949 65.7613 108.949 65.7613 108.949 64.4469H108.956C108.886 64.3307 108.916 64.1655 108.947 63.9964C109 63.7046 109.056 63.4011 108.599 63.3183C107.711 63.1532 106.796 63.0706 105.887 63.2977C105.11 63.4973 104.738 63.9789 104.766 64.7772C104.793 65.5685 105.22 66.0571 105.977 66.2016C106.534 66.3048 107.098 66.236 107.663 66.0915L107.702 66.0814Z" fill="white"/>
<path fill-rule="evenodd" clip-rule="evenodd" d="M166.689 27.2814C166.999 28.0521 167.522 28.293 168.375 28.0246L168.368 28.0177C168.272 27.8338 168.176 27.6503 168.08 27.4671C167.753 26.8417 167.429 26.2214 167.088 25.6093C167.084 25.602 167.08 25.5948 167.076 25.5876C166.905 25.2775 166.803 25.0939 167.247 24.8249C168.21 24.2537 168.513 23.2146 168.196 22.0517C167.969 21.2191 167.267 20.6824 166.18 20.6136C165.608 20.5748 165.036 20.5765 164.464 20.5781C164.121 20.579 163.778 20.58 163.435 20.5723C163.049 20.5654 162.953 20.7512 162.953 21.0952C162.96 23.2353 162.967 25.3822 162.953 27.5223C162.946 27.9627 163.118 28.1072 163.558 28.1209C164.047 28.1347 164.13 27.9008 164.109 27.4948C164.104 27.3329 164.109 27.17 164.115 27.0072C164.124 26.7411 164.134 26.4753 164.095 26.2149C163.957 25.3341 164.35 25.1345 165.141 25.2171C165.499 25.2584 165.719 25.3478 165.87 25.6781C165.981 25.9136 166.107 26.1426 166.232 26.3714C166.397 26.6706 166.561 26.9694 166.689 27.2814ZM166.517 21.7145C166.111 21.4599 165.657 21.4324 165.265 21.4599C164.606 21.4703 164.325 21.4336 164.205 21.5556C164.087 21.6757 164.126 21.9498 164.116 22.5747C164.116 22.602 164.114 22.63 164.113 22.6583C164.11 22.7156 164.107 22.774 164.116 22.8293C164.142 22.9987 164.118 23.1963 164.094 23.3913C164.049 23.7586 164.005 24.1168 164.302 24.2606C164.859 24.529 165.588 24.412 166.228 24.2055C166.751 24.0404 167.033 23.6963 167.068 23.1458C167.102 22.5816 167.054 22.0517 166.517 21.7145Z" fill="white"/>
</svg>
