<svg width="827" height="422" viewBox="0 0 827 422" fill="none" xmlns="http://www.w3.org/2000/svg">
<path d="M157.695 74.8864H117.809V381.772H157.695V74.8864Z" fill="#1B57B3"/>
<path d="M118.078 74.908H6.75732V381.793H118.078V74.908Z" fill="#4096FF"/>
<path d="M110.528 119.216H14.3071V362.384H110.528V119.216Z" fill="#265399"/>
<path d="M10.597 221.671C9.69098 221.671 8.95752 220.938 8.95752 220.032V193.051C8.95752 192.145 9.69098 191.412 10.597 191.412C11.503 191.412 12.2365 192.145 12.2365 193.051V220.032C12.2365 220.938 11.503 221.671 10.597 221.671Z" fill="#265399"/>
<path d="M118.073 143.021H114.492V162.171H118.073V143.021Z" fill="#265399"/>
<path d="M118.073 311.663H114.492V330.814H118.073V311.663Z" fill="#265399"/>
<path d="M108.214 157.318H18.1846V186.898H108.214V157.318Z" fill="#408BFF"/>
<path d="M108.214 191.741H18.1846V221.321H108.214V191.741Z" fill="#408BFF"/>
<path d="M108.214 226.164H18.1846V255.744H108.214V226.164Z" fill="#408BFF"/>
<path d="M108.214 260.592H18.1846V290.173H108.214V260.592Z" fill="#408BFF"/>
<path d="M108.214 295.015H18.1846V324.596H108.214V295.015Z" fill="#408BFF"/>
<path d="M108.214 329.444H18.1846V359.024H108.214V329.444Z" fill="#408BFF"/>
<path d="M108.214 122.889H18.1846V152.469H108.214V122.889Z" fill="#408BFF"/>
<path d="M99.683 130.569H25.4707V145.27H99.683V130.569Z" fill="#265399"/>
<path d="M81.6975 134.592H28.48V141.333H81.6975V134.592Z" fill="#40BEFF"/>
<path d="M85.3761 139.758C86.3172 139.758 87.0802 138.954 87.0802 137.962C87.0802 136.97 86.3172 136.166 85.3761 136.166C84.4349 136.166 83.6719 136.97 83.6719 137.962C83.6719 138.954 84.4349 139.758 85.3761 139.758Z" fill="#246AD6"/>
<path d="M92.0143 137.962C92.0143 138.955 91.2485 139.758 90.3101 139.758C89.3717 139.758 88.606 138.955 88.606 137.962C88.606 136.97 89.3717 136.166 90.3101 136.166C91.2485 136.166 92.0143 136.97 92.0143 137.962Z" fill="#408BFF"/>
<path d="M95.2393 139.758C96.1805 139.758 96.9435 138.954 96.9435 137.962C96.9435 136.97 96.1805 136.166 95.2393 136.166C94.2981 136.166 93.5352 136.97 93.5352 137.962C93.5352 138.954 94.2981 139.758 95.2393 139.758Z" fill="#408BFF"/>
<path d="M99.683 165.38H25.4707V180.081H99.683V165.38Z" fill="#265399"/>
<path d="M81.6975 169.403H28.48V176.144H81.6975V169.403Z" fill="#40BEFF"/>
<path d="M99.683 200.191H25.4707V214.893H99.683V200.191Z" fill="#265399"/>
<path d="M81.6975 204.215H28.48V210.956H81.6975V204.215Z" fill="#40BEFF"/>
<path d="M99.683 235.003H25.4707V249.704H99.683V235.003Z" fill="#265399"/>
<path d="M81.6975 239.026H28.48V245.767H81.6975V239.026Z" fill="#40BEFF"/>
<path d="M99.683 268.903H25.4707V283.604H99.683V268.903Z" fill="#265399"/>
<path d="M81.6975 272.926H28.48V279.667H81.6975V272.926Z" fill="#40BEFF"/>
<path d="M85.3761 278.227C86.3172 278.227 87.0802 277.423 87.0802 276.431C87.0802 275.44 86.3172 274.636 85.3761 274.636C84.4349 274.636 83.6719 275.44 83.6719 276.431C83.6719 277.423 84.4349 278.227 85.3761 278.227Z" fill="#246AD6"/>
<path d="M92.0143 276.431C92.0143 277.424 91.2485 278.227 90.3101 278.227C89.3717 278.227 88.606 277.424 88.606 276.431C88.606 275.439 89.3717 274.636 90.3101 274.636C91.2485 274.636 92.0143 275.439 92.0143 276.431Z" fill="#408BFF"/>
<path d="M95.2393 278.227C96.1805 278.227 96.9435 277.423 96.9435 276.431C96.9435 275.44 96.1805 274.636 95.2393 274.636C94.2981 274.636 93.5352 275.44 93.5352 276.431C93.5352 277.423 94.2981 278.227 95.2393 278.227Z" fill="#408BFF"/>
<path d="M99.683 303.844H25.4707V318.545H99.683V303.844Z" fill="#265399"/>
<path d="M81.6975 307.867H28.48V314.608H81.6975V307.867Z" fill="#40BEFF"/>
<path d="M99.683 338.003H25.4707V352.704H99.683V338.003Z" fill="#265399"/>
<path d="M81.6975 342.026H28.48V348.767H81.6975V342.026Z" fill="#40BEFF"/>
<path d="M87.0802 345.601C87.0802 346.594 86.3144 347.397 85.3761 347.397C84.4377 347.397 83.6719 346.594 83.6719 345.601C83.6719 344.609 84.4377 343.805 85.3761 343.805C86.3144 343.805 87.0802 344.609 87.0802 345.601Z" fill="#246AD6"/>
<path d="M92.0143 345.601C92.0143 346.594 91.2485 347.397 90.3101 347.397C89.3717 347.397 88.606 346.594 88.606 345.601C88.606 344.609 89.3717 343.805 90.3101 343.805C91.2485 343.805 92.0143 344.609 92.0143 345.601Z" fill="#408BFF"/>
<path d="M96.9488 345.601C96.9488 346.594 96.183 347.397 95.2446 347.397C94.3063 347.397 93.5405 346.594 93.5405 345.601C93.5405 344.609 94.3063 343.805 95.2446 343.805C96.183 343.805 96.9488 344.609 96.9488 345.601Z" fill="#408BFF"/>
<path d="M87.0802 173.06C87.0802 174.052 86.3144 174.855 85.3761 174.855C84.4377 174.855 83.6719 174.052 83.6719 173.06C83.6719 172.067 84.4377 171.264 85.3761 171.264C86.3144 171.264 87.0802 172.067 87.0802 173.06Z" fill="#246AD6"/>
<path d="M92.0143 173.06C92.0143 174.052 91.2485 174.855 90.3101 174.855C89.3717 174.855 88.606 174.052 88.606 173.06C88.606 172.067 89.3717 171.264 90.3101 171.264C91.2485 171.264 92.0143 172.067 92.0143 173.06Z" fill="#408BFF"/>
<path d="M96.9488 173.06C96.9488 174.052 96.183 174.855 95.2446 174.855C94.3063 174.855 93.5405 174.052 93.5405 173.06C93.5405 172.067 94.3063 171.264 95.2446 171.264C96.183 171.264 96.9488 172.067 96.9488 173.06Z" fill="#408BFF"/>
<path d="M87.0802 207.499C87.0802 208.491 86.3144 209.295 85.3761 209.295C84.4377 209.295 83.6719 208.491 83.6719 207.499C83.6719 206.507 84.4377 205.703 85.3761 205.703C86.3144 205.703 87.0802 206.507 87.0802 207.499Z" fill="#246AD6"/>
<path d="M92.0143 207.499C92.0143 208.491 91.2485 209.295 90.3101 209.295C89.3717 209.295 88.606 208.491 88.606 207.499C88.606 206.507 89.3717 205.703 90.3101 205.703C91.2485 205.703 92.0143 206.507 92.0143 207.499Z" fill="#408BFF"/>
<path d="M96.9488 207.499C96.9488 208.491 96.183 209.295 95.2446 209.295C94.3063 209.295 93.5405 208.491 93.5405 207.499C93.5405 206.507 94.3063 205.703 95.2446 205.703C96.183 205.703 96.9488 206.507 96.9488 207.499Z" fill="#408BFF"/>
<path d="M85.3761 244.3C86.3172 244.3 87.0802 243.496 87.0802 242.504C87.0802 241.513 86.3172 240.709 85.3761 240.709C84.4349 240.709 83.6719 241.513 83.6719 242.504C83.6719 243.496 84.4349 244.3 85.3761 244.3Z" fill="#246AD6"/>
<path d="M92.0143 242.504C92.0143 243.497 91.2485 244.3 90.3101 244.3C89.3717 244.3 88.606 243.497 88.606 242.504C88.606 241.512 89.3717 240.709 90.3101 240.709C91.2485 240.709 92.0143 241.512 92.0143 242.504Z" fill="#408BFF"/>
<path d="M95.2393 244.3C96.1805 244.3 96.9435 243.496 96.9435 242.504C96.9435 241.513 96.1805 240.709 95.2393 240.709C94.2981 240.709 93.5352 241.513 93.5352 242.504C93.5352 243.496 94.2981 244.3 95.2393 244.3Z" fill="#408BFF"/>
<path d="M87.0802 311.41C87.0802 312.402 86.3144 313.206 85.3761 313.206C84.4377 313.206 83.6719 312.402 83.6719 311.41C83.6719 310.418 84.4377 309.614 85.3761 309.614C86.3144 309.614 87.0802 310.418 87.0802 311.41Z" fill="#246AD6"/>
<path d="M92.0143 311.41C92.0143 312.402 91.2485 313.206 90.3101 313.206C89.3717 313.206 88.606 312.402 88.606 311.41C88.606 310.418 89.3717 309.614 90.3101 309.614C91.2485 309.614 92.0143 310.418 92.0143 311.41Z" fill="#408BFF"/>
<path d="M96.9488 311.41C96.9488 312.402 96.183 313.206 95.2446 313.206C94.3063 313.206 93.5405 312.402 93.5405 311.41C93.5405 310.418 94.3063 309.614 95.2446 309.614C96.183 309.614 96.9488 310.418 96.9488 311.41Z" fill="#408BFF"/>
<path d="M120.775 74.8864H117.809V381.772H120.775V74.8864Z" fill="#2D76E6"/>
<path d="M121.012 381.772H120.537V115.075H6.854V114.605H121.012V381.772Z" fill="#0B254D"/>
<path d="M118.073 224.406H114.492V243.556H118.073V224.406Z" fill="#265399"/>
<path d="M58.3461 85.8448H17.4353L14.2695 82.7924H58.3461V85.8448Z" fill="#265399"/>
<path d="M58.3461 90.4558H17.4353L14.2695 87.4034H58.3461V90.4558Z" fill="#265399"/>
<path d="M58.3461 95.0668H17.4353L14.2695 92.0144H58.3461V95.0668Z" fill="#265399"/>
<path d="M58.3461 99.6777H17.4353L14.2695 96.6253H58.3461V99.6777Z" fill="#265399"/>
<path d="M58.3461 104.294H17.4353L14.2695 101.236H58.3461V104.294Z" fill="#265399"/>
<path d="M58.3461 108.905H17.4353L14.2695 105.847H58.3461V108.905Z" fill="#265399"/>
<path d="M109.875 85.8448H68.9591L65.7935 82.7924H109.875V85.8448Z" fill="#265399"/>
<path d="M109.875 90.4558H68.9591L65.7935 87.4034H109.875V90.4558Z" fill="#265399"/>
<path d="M109.875 95.0668H68.9591L65.7935 92.0144H109.875V95.0668Z" fill="#265399"/>
<path d="M109.875 99.6777H68.9591L65.7935 96.6253H109.875V99.6777Z" fill="#265399"/>
<path d="M109.875 104.294H68.9591L65.7935 101.236H109.875V104.294Z" fill="#265399"/>
<path d="M109.875 108.905H68.9591L65.7935 105.847H109.875V108.905Z" fill="#265399"/>
<path d="M153.532 138.119H125.375V119.373H153.532V138.119ZM125.688 137.806H153.219V119.686H125.688V137.806Z" fill="#408BFF"/>
<path d="M153.532 164.102H125.375V145.356H153.532V164.102ZM125.688 163.794H153.219V145.674H125.688V163.794Z" fill="#408BFF"/>
<path d="M153.532 191.422H125.375V172.677H153.532V191.422ZM125.688 191.11H153.219V172.989H125.688V191.11Z" fill="#408BFF"/>
<path d="M153.532 217.406H125.375V198.66H153.532V217.406ZM125.688 217.093H153.219V198.973H125.688V217.093Z" fill="#408BFF"/>
<path d="M153.532 361.866H125.375V227.377H153.532V361.866ZM125.688 361.559H153.219V227.69H125.688V361.559Z" fill="#408BFF"/>
<path d="M158.79 381.826H32.6864C31.171 381.826 29.936 383.055 29.936 384.571V418.169C29.936 419.684 31.1656 420.914 32.6864 420.914H158.79C160.305 420.914 161.54 419.684 161.54 418.169V384.571C161.54 383.055 160.31 381.826 158.79 381.826Z" fill="#113873"/>
<path d="M122.484 381.669C100.454 381.696 23.222 381.799 3.61864 381.82C1.60708 381.82 0 383.422 0 385.39V417.349C0 419.317 1.60174 420.914 3.61331 420.919C23.3137 420.962 99.6508 421.173 122.479 421.232C124.496 421.232 126.114 419.636 126.114 417.662V385.239C126.114 383.266 124.496 381.669 122.479 381.669H122.484Z" fill="#1951A6"/>
<path d="M157.776 381.119H6.7085V381.745H157.776V381.119Z" fill="#0B254D"/>
<path d="M39.4652 391.792H7.94883C6.54127 391.792 5.39258 390.643 5.39258 389.236C5.39258 387.828 6.54127 386.679 7.94883 386.679H39.4652C40.8728 386.679 42.0215 387.828 42.0215 389.236C42.0215 390.643 40.8728 391.792 39.4652 391.792Z" fill="#408BFF"/>
<path d="M668.622 381.772H708.508V74.8864H668.622V381.772Z" fill="#1B57B3"/>
<path d="M708.238 381.793H819.559V74.908H708.238V381.793Z" fill="#4096FF"/>
<path d="M715.788 362.389H812.009V119.222H715.788V362.389Z" fill="#265399"/>
<path d="M815.719 221.671C816.625 221.671 817.359 220.938 817.359 220.032V193.051C817.359 192.145 816.625 191.412 815.719 191.412C814.813 191.412 814.08 192.145 814.08 193.051V220.032C814.08 220.938 814.813 221.671 815.719 221.671Z" fill="#265399"/>
<path d="M708.243 162.171H711.824V143.021H708.243V162.171Z" fill="#265399"/>
<path d="M708.243 330.814H711.824V311.664H708.243V330.814Z" fill="#265399"/>
<path d="M718.102 186.898H808.131V157.318H718.102V186.898Z" fill="#408BFF"/>
<path d="M718.102 221.321H808.131V191.741H718.102V221.321Z" fill="#408BFF"/>
<path d="M718.102 255.75H808.131V226.169H718.102V255.75Z" fill="#408BFF"/>
<path d="M718.102 290.173H808.131V260.592H718.102V290.173Z" fill="#408BFF"/>
<path d="M718.102 324.601H808.131V295.021H718.102V324.601Z" fill="#408BFF"/>
<path d="M718.102 359.019H808.131V329.439H718.102V359.019Z" fill="#408BFF"/>
<path d="M718.102 152.475H808.131V122.894L718.102 122.894V152.475Z" fill="#408BFF"/>
<path d="M726.639 145.275H800.851V130.574H726.639V145.275Z" fill="#265399"/>
<path d="M744.624 141.333H797.842V134.592H744.624V141.333Z" fill="#40BEFF"/>
<path d="M739.236 137.962C739.236 138.955 740.002 139.758 740.94 139.758C741.879 139.758 742.645 138.955 742.645 137.962C742.645 136.97 741.879 136.166 740.94 136.166C740.002 136.166 739.236 136.97 739.236 137.962Z" fill="#246AD6"/>
<path d="M736.006 139.758C736.947 139.758 737.71 138.954 737.71 137.962C737.71 136.97 736.947 136.166 736.006 136.166C735.065 136.166 734.302 136.97 734.302 137.962C734.302 138.954 735.065 139.758 736.006 139.758Z" fill="#408BFF"/>
<path d="M729.367 137.962C729.367 138.955 730.133 139.758 731.071 139.758C732.01 139.758 732.776 138.955 732.776 137.962C732.776 136.97 732.01 136.166 731.071 136.166C730.133 136.166 729.367 136.97 729.367 137.962Z" fill="#408BFF"/>
<path d="M726.639 180.087H800.851V165.385H726.639V180.087Z" fill="#265399"/>
<path d="M744.624 176.144H797.842V169.403H744.624V176.144Z" fill="#40BEFF"/>
<path d="M726.639 214.898H800.851V200.197H726.639V214.898Z" fill="#265399"/>
<path d="M744.624 210.956H797.842V204.215H744.624V210.956Z" fill="#40BEFF"/>
<path d="M726.639 249.709H800.851V235.008H726.639V249.709Z" fill="#265399"/>
<path d="M744.624 245.767H797.842V239.026H744.624V245.767Z" fill="#40BEFF"/>
<path d="M726.639 283.604H800.851V268.903H726.639V283.604Z" fill="#265399"/>
<path d="M744.624 279.662H797.842V272.921H744.624V279.662Z" fill="#40BEFF"/>
<path d="M739.236 276.431C739.236 277.424 740.002 278.227 740.94 278.227C741.879 278.227 742.645 277.424 742.645 276.431C742.645 275.439 741.879 274.636 740.94 274.636C740.002 274.636 739.236 275.439 739.236 276.431Z" fill="#246AD6"/>
<path d="M736.006 278.227C736.947 278.227 737.71 277.423 737.71 276.431C737.71 275.44 736.947 274.636 736.006 274.636C735.065 274.636 734.302 275.44 734.302 276.431C734.302 277.423 735.065 278.227 736.006 278.227Z" fill="#408BFF"/>
<path d="M729.367 276.431C729.367 277.424 730.133 278.227 731.071 278.227C732.01 278.227 732.776 277.424 732.776 276.431C732.776 275.439 732.01 274.636 731.071 274.636C730.133 274.636 729.367 275.439 729.367 276.431Z" fill="#408BFF"/>
<path d="M726.639 318.545H800.851V303.844H726.639V318.545Z" fill="#265399"/>
<path d="M744.624 314.603H797.842V307.861H744.624V314.603Z" fill="#40BEFF"/>
<path d="M726.639 352.704H800.851V338.003H726.639V352.704Z" fill="#265399"/>
<path d="M744.624 348.762H797.842V342.02H744.624V348.762Z" fill="#40BEFF"/>
<path d="M739.236 345.601C739.236 346.594 740.002 347.397 740.94 347.397C741.879 347.397 742.645 346.594 742.645 345.601C742.645 344.609 741.879 343.805 740.94 343.805C740.002 343.805 739.236 344.609 739.236 345.601Z" fill="#246AD6"/>
<path d="M734.302 345.601C734.302 346.594 735.068 347.397 736.006 347.397C736.944 347.397 737.71 346.594 737.71 345.601C737.71 344.609 736.944 343.805 736.006 343.805C735.068 343.805 734.302 344.609 734.302 345.601Z" fill="#408BFF"/>
<path d="M729.367 345.601C729.367 346.594 730.133 347.397 731.071 347.397C732.01 347.397 732.776 346.594 732.776 345.601C732.776 344.609 732.01 343.805 731.071 343.805C730.133 343.805 729.367 344.609 729.367 345.601Z" fill="#408BFF"/>
<path d="M739.236 173.06C739.236 174.052 740.002 174.855 740.94 174.855C741.879 174.855 742.645 174.052 742.645 173.06C742.645 172.067 741.879 171.264 740.94 171.264C740.002 171.264 739.236 172.067 739.236 173.06Z" fill="#246AD6"/>
<path d="M734.302 173.06C734.302 174.052 735.068 174.855 736.006 174.855C736.944 174.855 737.71 174.052 737.71 173.06C737.71 172.067 736.944 171.264 736.006 171.264C735.068 171.264 734.302 172.067 734.302 173.06Z" fill="#408BFF"/>
<path d="M729.367 173.06C729.367 174.052 730.133 174.855 731.071 174.855C732.01 174.855 732.776 174.052 732.776 173.06C732.776 172.067 732.01 171.264 731.071 171.264C730.133 171.264 729.367 172.067 729.367 173.06Z" fill="#408BFF"/>
<path d="M739.236 207.499C739.236 208.491 740.002 209.295 740.94 209.295C741.879 209.295 742.645 208.491 742.645 207.499C742.645 206.507 741.879 205.703 740.94 205.703C740.002 205.703 739.236 206.507 739.236 207.499Z" fill="#246AD6"/>
<path d="M734.302 207.499C734.302 208.491 735.068 209.295 736.006 209.295C736.944 209.295 737.71 208.491 737.71 207.499C737.71 206.507 736.944 205.703 736.006 205.703C735.068 205.703 734.302 206.507 734.302 207.499Z" fill="#408BFF"/>
<path d="M729.367 207.499C729.367 208.491 730.133 209.295 731.071 209.295C732.01 209.295 732.776 208.491 732.776 207.499C732.776 206.507 732.01 205.703 731.071 205.703C730.133 205.703 729.367 206.507 729.367 207.499Z" fill="#408BFF"/>
<path d="M739.236 242.504C739.236 243.497 740.002 244.3 740.94 244.3C741.879 244.3 742.645 243.497 742.645 242.504C742.645 241.512 741.879 240.709 740.94 240.709C740.002 240.709 739.236 241.512 739.236 242.504Z" fill="#246AD6"/>
<path d="M736.006 244.3C736.947 244.3 737.71 243.496 737.71 242.504C737.71 241.513 736.947 240.709 736.006 240.709C735.065 240.709 734.302 241.513 734.302 242.504C734.302 243.496 735.065 244.3 736.006 244.3Z" fill="#408BFF"/>
<path d="M729.367 242.504C729.367 243.497 730.133 244.3 731.071 244.3C732.01 244.3 732.776 243.497 732.776 242.504C732.776 241.512 732.01 240.709 731.071 240.709C730.133 240.709 729.367 241.512 729.367 242.504Z" fill="#408BFF"/>
<path d="M739.236 311.41C739.236 312.402 740.002 313.206 740.94 313.206C741.879 313.206 742.645 312.402 742.645 311.41C742.645 310.418 741.879 309.614 740.94 309.614C740.002 309.614 739.236 310.418 739.236 311.41Z" fill="#246AD6"/>
<path d="M734.302 311.41C734.302 312.402 735.068 313.206 736.006 313.206C736.944 313.206 737.71 312.402 737.71 311.41C737.71 310.418 736.944 309.614 736.006 309.614C735.068 309.614 734.302 310.418 734.302 311.41Z" fill="#408BFF"/>
<path d="M729.367 311.41C729.367 312.402 730.133 313.206 731.071 313.206C732.01 313.206 732.776 312.402 732.776 311.41C732.776 310.418 732.01 309.614 731.071 309.614C730.133 309.614 729.367 310.418 729.367 311.41Z" fill="#408BFF"/>
<path d="M705.542 381.772H708.508V74.8864H705.542V381.772Z" fill="#2D76E6"/>
<path d="M705.779 381.772H705.305V114.605H819.462V115.075H705.779V381.772Z" fill="#0B254D"/>
<path d="M708.244 243.556H711.825V224.406H708.244V243.556Z" fill="#265399"/>
<path d="M767.971 85.8448H808.882L812.047 82.7924H767.971V85.8448Z" fill="#265399"/>
<path d="M767.971 90.4558H808.882L812.047 87.4034H767.971V90.4558Z" fill="#265399"/>
<path d="M767.971 95.0668H808.882L812.047 92.0144H767.971V95.0668Z" fill="#265399"/>
<path d="M767.971 99.6777H808.882L812.047 96.6253H767.971V99.6777Z" fill="#265399"/>
<path d="M767.971 104.294H808.882L812.047 101.236H767.971V104.294Z" fill="#265399"/>
<path d="M767.971 108.905H808.882L812.047 105.847H767.971V108.905Z" fill="#265399"/>
<path d="M716.441 85.8448H757.357L760.523 82.7924H716.441V85.8448Z" fill="#265399"/>
<path d="M716.441 90.4558H757.357L760.523 87.4034H716.441V90.4558Z" fill="#265399"/>
<path d="M716.441 95.0668H757.357L760.523 92.0144H716.441V95.0668Z" fill="#265399"/>
<path d="M716.441 99.6777H757.357L760.523 96.6253H716.441V99.6777Z" fill="#265399"/>
<path d="M716.441 104.294H757.357L760.523 101.236H716.441V104.294Z" fill="#265399"/>
<path d="M716.441 108.905H757.357L760.523 105.847H716.441V108.905Z" fill="#265399"/>
<path d="M700.942 138.119H672.785V119.373H700.942V138.119ZM673.098 137.806H700.629V119.686H673.098V137.806Z" fill="#408BFF"/>
<path d="M700.942 164.102H672.785V145.356H700.942V164.102ZM673.098 163.794H700.629V145.674H673.098V163.794Z" fill="#408BFF"/>
<path d="M700.942 191.422H672.785V172.677H700.942V191.422ZM673.098 191.11H700.629V172.989H673.098V191.11Z" fill="#408BFF"/>
<path d="M700.942 217.406H672.785V198.66H700.942V217.406ZM673.098 217.093H700.629V198.973H673.098V217.093Z" fill="#408BFF"/>
<path d="M700.942 361.866H672.785V227.377H700.942V361.866ZM673.098 361.559H700.629V227.69H673.098V361.559Z" fill="#408BFF"/>
<path d="M667.527 381.826H793.63C795.145 381.826 796.375 383.055 796.375 384.571V418.169C796.375 419.684 795.145 420.914 793.63 420.914H667.527C666.011 420.914 664.776 419.684 664.776 418.169V384.571C664.776 383.055 666.006 381.826 667.527 381.826Z" fill="#113873"/>
<path d="M703.833 381.669C725.863 381.696 803.095 381.799 822.698 381.82C824.71 381.82 826.317 383.422 826.317 385.39V417.349C826.317 419.317 824.715 420.914 822.704 420.919C803.003 420.962 726.666 421.173 703.838 421.232C701.821 421.232 700.203 419.636 700.203 417.662V385.239C700.203 383.266 701.821 381.669 703.838 381.669H703.833Z" fill="#1951A6"/>
<path d="M819.614 381.119H668.546V381.745H819.614V381.119Z" fill="#0B254D"/>
<path d="M786.851 391.792H818.367C819.775 391.792 820.924 390.643 820.924 389.236C820.924 387.828 819.775 386.679 818.367 386.679H786.851C785.444 386.679 784.295 387.828 784.295 389.236C784.295 390.643 785.444 391.792 786.851 391.792Z" fill="#408BFF"/>
<path d="M755 204.152C755.175 204.068 755.36 204.065 755.549 204.065C765.519 204.065 775.49 204.065 785.461 204.065C785.671 204.065 785.926 203.998 786.02 204.274C786.108 204.522 785.88 204.634 785.744 204.77C783.938 206.58 782.125 208.379 780.322 210.193C779.983 210.535 779.606 210.692 779.124 210.692C773.384 210.685 767.64 210.685 761.9 210.692C761.418 210.692 761.044 210.539 760.702 210.193C758.812 208.289 756.904 206.399 755 204.501C755 204.386 755 204.271 755 204.152Z" fill="white" fill-opacity="0.8"/>
<path d="M755 201.801C756.024 200.795 757.047 199.792 758.067 198.782C759.231 197.626 760.387 196.463 761.547 195.306C761.959 194.894 762.232 194.897 762.658 195.32C764.744 197.399 766.83 199.481 768.912 201.567C769.048 201.703 769.268 201.822 769.17 202.07C769.069 202.325 768.821 202.293 768.608 202.293C766.473 202.293 764.339 202.293 762.2 202.293C760.02 202.293 757.844 202.293 755.664 202.293C755.43 202.293 755.196 202.304 755 202.147V201.797V201.801Z" fill="white" fill-opacity="0.8"/>
<path d="M778.9 202.297C776.793 202.297 774.687 202.297 772.58 202.297C772.465 202.297 772.346 202.3 772.231 202.297C772.066 202.286 771.906 202.255 771.846 202.07C771.794 201.906 771.895 201.801 772 201.693C772.915 200.781 773.827 199.865 774.739 198.954C775.941 197.752 777.139 196.553 778.344 195.355C778.809 194.89 779.061 194.89 779.518 195.345C781.594 197.413 783.669 199.485 785.737 201.56C785.884 201.707 786.128 201.832 786.013 202.094C785.905 202.339 785.65 202.297 785.437 202.297C783.257 202.297 781.08 202.297 778.9 202.297Z" fill="white" fill-opacity="0.8"/>
<path d="M770.519 212.481C772.699 212.481 774.879 212.481 777.059 212.481C777.251 212.481 777.492 212.408 777.59 212.663C777.684 212.907 777.478 213.03 777.338 213.169C775.253 215.251 773.167 217.334 771.081 219.416C770.63 219.863 770.41 219.867 769.949 219.409C767.849 217.32 765.757 215.227 763.661 213.134C763.531 213.005 763.346 212.886 763.444 212.659C763.542 212.432 763.755 212.481 763.937 212.481C766.131 212.481 768.325 212.481 770.519 212.481Z" fill="white" fill-opacity="0.8"/>
<path d="M316.883 20.1211H270.688V375.538H316.883V20.1211Z" fill="#1B57B3"/>
<path d="M271.001 20.148H142.077V375.559H271.001V20.148Z" fill="#4096FF"/>
<path d="M262.259 71.4618H150.824V353.081H262.259V71.4618Z" fill="#265399"/>
<path d="M146.52 190.117C145.474 190.117 144.622 189.271 144.622 188.219V156.972C144.622 155.926 145.469 155.074 146.52 155.074C147.567 155.074 148.419 155.921 148.419 156.972V188.219C148.419 189.265 147.572 190.117 146.52 190.117Z" fill="#265399"/>
<path d="M270.995 99.0306H266.848V121.206H270.995V99.0306Z" fill="#265399"/>
<path d="M270.995 294.336H266.848V316.512H270.995V294.336Z" fill="#265399"/>
<path d="M259.578 115.587H155.311V149.848H259.578V115.587Z" fill="#408BFF"/>
<path d="M259.578 155.452H155.311V189.713H259.578V155.452Z" fill="#408BFF"/>
<path d="M259.578 195.322H155.311V229.583H259.578V195.322Z" fill="#408BFF"/>
<path d="M259.578 235.192H155.311V269.453H259.578V235.192Z" fill="#408BFF"/>
<path d="M259.578 275.062H155.311V309.323H259.578V275.062Z" fill="#408BFF"/>
<path d="M259.578 314.926H155.311V349.188H259.578V314.926Z" fill="#408BFF"/>
<path d="M259.578 75.7169H155.311V109.978H259.578V75.7169Z" fill="#408BFF"/>
<path d="M249.693 84.6098H163.746V101.635H249.693V84.6098Z" fill="#265399"/>
<path d="M228.871 89.2693H167.235V97.0783H228.871V89.2693Z" fill="#40BEFF"/>
<path d="M233.126 95.2502C234.216 95.2502 235.1 94.3206 235.1 93.1739C235.1 92.0272 234.216 91.0976 233.126 91.0976C232.036 91.0976 231.152 92.0272 231.152 93.1739C231.152 94.3206 232.036 95.2502 233.126 95.2502Z" fill="#246AD6"/>
<path d="M238.843 95.2502C239.933 95.2502 240.817 94.3206 240.817 93.1739C240.817 92.0272 239.933 91.0976 238.843 91.0976C237.753 91.0976 236.869 92.0272 236.869 93.1739C236.869 94.3206 237.753 95.2502 238.843 95.2502Z" fill="#408BFF"/>
<path d="M244.554 95.2502C245.644 95.2502 246.528 94.3206 246.528 93.1739C246.528 92.0272 245.644 91.0976 244.554 91.0976C243.464 91.0976 242.58 92.0272 242.58 93.1739C242.58 94.3206 243.464 95.2502 244.554 95.2502Z" fill="#408BFF"/>
<path d="M249.693 124.927H163.746V141.953H249.693V124.927Z" fill="#265399"/>
<path d="M228.871 129.582H167.235V137.391H228.871V129.582Z" fill="#40BEFF"/>
<path d="M249.693 165.24H163.746V182.265H249.693V165.24Z" fill="#265399"/>
<path d="M228.871 169.899H167.235V177.708H228.871V169.899Z" fill="#40BEFF"/>
<path d="M249.693 205.557H163.746V222.583H249.693V205.557Z" fill="#265399"/>
<path d="M228.871 210.217H167.235V218.026H228.871V210.217Z" fill="#40BEFF"/>
<path d="M249.693 244.813H163.746V261.838H249.693V244.813Z" fill="#265399"/>
<path d="M228.871 249.472H167.235V257.281H228.871V249.472Z" fill="#40BEFF"/>
<path d="M233.126 255.615C234.216 255.615 235.1 254.685 235.1 253.538C235.1 252.392 234.216 251.462 233.126 251.462C232.036 251.462 231.152 252.392 231.152 253.538C231.152 254.685 232.036 255.615 233.126 255.615Z" fill="#246AD6"/>
<path d="M238.842 255.615C239.933 255.615 240.816 254.685 240.816 253.538C240.816 252.392 239.933 251.462 238.842 251.462C237.752 251.462 236.869 252.392 236.869 253.538C236.869 254.685 237.752 255.615 238.842 255.615Z" fill="#408BFF"/>
<path d="M244.553 255.615C245.643 255.615 246.527 254.685 246.527 253.538C246.527 252.392 245.643 251.462 244.553 251.462C243.463 251.462 242.58 252.392 242.58 253.538C242.58 254.685 243.463 255.615 244.553 255.615Z" fill="#408BFF"/>
<path d="M249.693 285.281H163.746V302.307H249.693V285.281Z" fill="#265399"/>
<path d="M228.871 289.941H167.235V297.75H228.871V289.941Z" fill="#40BEFF"/>
<path d="M249.693 324.844H163.746V341.869H249.693V324.844Z" fill="#265399"/>
<path d="M228.871 329.498H167.235V337.307H228.871V329.498Z" fill="#40BEFF"/>
<path d="M235.105 333.64C235.105 334.788 234.221 335.716 233.132 335.716C232.042 335.716 231.158 334.783 231.158 333.64C231.158 332.496 232.042 331.563 233.132 331.563C234.221 331.563 235.105 332.496 235.105 333.64Z" fill="#246AD6"/>
<path d="M240.816 333.64C240.816 334.788 239.932 335.716 238.842 335.716C237.753 335.716 236.869 334.783 236.869 333.64C236.869 332.496 237.753 331.563 238.842 331.563C239.932 331.563 240.816 332.496 240.816 333.64Z" fill="#408BFF"/>
<path d="M246.528 333.64C246.528 334.788 245.643 335.716 244.554 335.716C243.464 335.716 242.58 334.783 242.58 333.64C242.58 332.496 243.464 331.563 244.554 331.563C245.643 331.563 246.528 332.496 246.528 333.64Z" fill="#408BFF"/>
<path d="M233.126 135.891C234.216 135.891 235.1 134.962 235.1 133.815C235.1 132.668 234.216 131.739 233.126 131.739C232.036 131.739 231.152 132.668 231.152 133.815C231.152 134.962 232.036 135.891 233.126 135.891Z" fill="#246AD6"/>
<path d="M238.842 135.891C239.933 135.891 240.816 134.962 240.816 133.815C240.816 132.668 239.933 131.739 238.842 131.739C237.752 131.739 236.869 132.668 236.869 133.815C236.869 134.962 237.752 135.891 238.842 135.891Z" fill="#408BFF"/>
<path d="M244.553 135.891C245.643 135.891 246.527 134.962 246.527 133.815C246.527 132.668 245.643 131.739 244.553 131.739C243.463 131.739 242.58 132.668 242.58 133.815C242.58 134.962 243.463 135.891 244.553 135.891Z" fill="#408BFF"/>
<path d="M235.105 173.701C235.105 174.85 234.221 175.778 233.132 175.778C232.042 175.778 231.158 174.845 231.158 173.701C231.158 172.558 232.042 171.625 233.132 171.625C234.221 171.625 235.105 172.558 235.105 173.701Z" fill="#246AD6"/>
<path d="M240.816 173.701C240.816 174.85 239.932 175.778 238.842 175.778C237.753 175.778 236.869 174.845 236.869 173.701C236.869 172.558 237.753 171.625 238.842 171.625C239.932 171.625 240.816 172.558 240.816 173.701Z" fill="#408BFF"/>
<path d="M246.528 173.701C246.528 174.85 245.643 175.778 244.554 175.778C243.464 175.778 242.58 174.845 242.58 173.701C242.58 172.558 243.464 171.625 244.554 171.625C245.643 171.625 246.528 172.558 246.528 173.701Z" fill="#408BFF"/>
<path d="M233.126 216.316C234.216 216.316 235.1 215.387 235.1 214.24C235.1 213.093 234.216 212.164 233.126 212.164C232.036 212.164 231.152 213.093 231.152 214.24C231.152 215.387 232.036 216.316 233.126 216.316Z" fill="#246AD6"/>
<path d="M238.842 216.316C239.933 216.316 240.816 215.387 240.816 214.24C240.816 213.093 239.933 212.164 238.842 212.164C237.752 212.164 236.869 213.093 236.869 214.24C236.869 215.387 237.752 216.316 238.842 216.316Z" fill="#408BFF"/>
<path d="M244.553 216.316C245.643 216.316 246.527 215.387 246.527 214.24C246.527 213.093 245.643 212.164 244.553 212.164C243.463 212.164 242.58 213.093 242.58 214.24C242.58 215.387 243.463 216.316 244.553 216.316Z" fill="#408BFF"/>
<path d="M233.126 296.121C234.216 296.121 235.1 295.191 235.1 294.045C235.1 292.898 234.216 291.968 233.126 291.968C232.036 291.968 231.152 292.898 231.152 294.045C231.152 295.191 232.036 296.121 233.126 296.121Z" fill="#246AD6"/>
<path d="M238.842 296.121C239.933 296.121 240.816 295.191 240.816 294.045C240.816 292.898 239.933 291.968 238.842 291.968C237.752 291.968 236.869 292.898 236.869 294.045C236.869 295.191 237.752 296.121 238.842 296.121Z" fill="#408BFF"/>
<path d="M244.553 296.121C245.643 296.121 246.527 295.191 246.527 294.045C246.527 292.898 245.643 291.968 244.553 291.968C243.463 291.968 242.58 292.898 242.58 294.045C242.58 295.191 243.463 296.121 244.553 296.121Z" fill="#408BFF"/>
<path d="M274.123 20.1211H270.688V375.538H274.123V20.1211Z" fill="#2D76E6"/>
<path d="M274.398 375.538H273.853V66.6622H142.19V66.1175H274.398V375.538Z" fill="#0B254D"/>
<path d="M270.995 193.283H266.848V215.459H270.995V193.283Z" fill="#265399"/>
<path d="M201.825 32.8161H154.443L150.776 29.2783H201.825V32.8161Z" fill="#265399"/>
<path d="M201.825 38.1551H154.443L150.776 34.6173H201.825V38.1551Z" fill="#265399"/>
<path d="M201.825 43.4941H154.443L150.776 39.9564H201.825V43.4941Z" fill="#265399"/>
<path d="M201.825 48.8385H154.443L150.776 45.3007H201.825V48.8385Z" fill="#265399"/>
<path d="M201.825 54.1775H154.443L150.776 50.6397H201.825V54.1775Z" fill="#265399"/>
<path d="M201.825 59.5165H154.443L150.776 55.9788H201.825V59.5165Z" fill="#265399"/>
<path d="M261.498 32.8161H214.116L210.449 29.2783H261.498V32.8161Z" fill="#265399"/>
<path d="M261.498 38.1551H214.116L210.449 34.6173H261.498V38.1551Z" fill="#265399"/>
<path d="M261.498 43.4941H214.116L210.449 39.9564H261.498V43.4941Z" fill="#265399"/>
<path d="M261.498 48.8385H214.116L210.449 45.3007H261.498V48.8385Z" fill="#265399"/>
<path d="M261.498 54.1775H214.116L210.449 50.6397H261.498V54.1775Z" fill="#265399"/>
<path d="M261.498 59.5165H214.116L210.449 55.9788H261.498V59.5165Z" fill="#265399"/>
<path d="M311.884 71.8232H279.634V93.1738H311.884V71.8232Z" fill="#2370E6"/>
<path d="M311.884 101.916H279.634V123.266H311.884V101.916Z" fill="#2370E6"/>
<path d="M311.884 133.556H279.634V154.907H311.884V133.556Z" fill="#2370E6"/>
<path d="M311.884 163.649H279.634V184.999H311.884V163.649Z" fill="#2370E6"/>
<path d="M311.884 196.907H279.634V352.305H311.884V196.907Z" fill="#2370E6"/>
<path d="M318.151 375.591H172.105C170.347 375.591 168.923 377.015 168.923 378.768V417.678C168.923 419.431 170.347 420.854 172.105 420.854H318.151C319.909 420.854 321.333 419.431 321.333 417.678V378.768C321.333 377.015 319.909 375.591 318.151 375.591Z" fill="#113873"/>
<path d="M276.102 375.413C250.588 375.446 161.146 375.564 138.442 375.591C136.112 375.591 134.252 377.447 134.252 379.728V416.74C134.252 419.021 136.107 420.871 138.437 420.876C161.249 420.924 249.661 421.173 276.097 421.237C278.432 421.243 280.304 419.393 280.304 417.101V379.555C280.304 377.269 278.427 375.419 276.097 375.419L276.102 375.413Z" fill="#1951A6"/>
<path d="M316.97 374.777H142.018V375.505H316.97V374.777Z" fill="#0B254D"/>
<path d="M179.957 381.222H143.457C141.822 381.222 140.497 382.547 140.497 384.182C140.497 385.818 141.822 387.143 143.457 387.143H179.957C181.592 387.143 182.917 385.818 182.917 384.182C182.917 382.547 181.592 381.222 179.957 381.222Z" fill="#408BFF"/>
<path d="M505.804 375.538H552V20.1211H505.804L505.804 375.538Z" fill="#1B57B3"/>
<path d="M551.687 375.559H680.61V20.148H551.687V375.559Z" fill="#4096FF"/>
<path d="M560.428 353.087H671.863V71.4673H560.428V353.087Z" fill="#265399"/>
<path d="M676.161 190.117C677.207 190.117 678.059 189.271 678.059 188.219V156.972C678.059 155.926 677.213 155.074 676.161 155.074C675.115 155.074 674.263 155.921 674.263 156.972V188.219C674.263 189.265 675.109 190.117 676.161 190.117Z" fill="#265399"/>
<path d="M551.687 121.212H555.834V99.036H551.687V121.212Z" fill="#265399"/>
<path d="M551.687 316.517H555.834V294.341H551.687V316.517Z" fill="#265399"/>
<path d="M563.109 149.843H667.376V115.581L563.109 115.581V149.843Z" fill="#408BFF"/>
<path d="M563.109 189.718H667.376V155.457H563.109V189.718Z" fill="#408BFF"/>
<path d="M563.109 229.583H667.376V195.322H563.109V229.583Z" fill="#408BFF"/>
<path d="M563.109 269.448H667.376V235.186H563.109V269.448Z" fill="#408BFF"/>
<path d="M563.109 309.318H667.376V275.056H563.109V309.318Z" fill="#408BFF"/>
<path d="M563.109 349.188H667.376V314.926H563.109V349.188Z" fill="#408BFF"/>
<path d="M563.109 109.978L667.376 109.978V75.7169L563.109 75.7169V109.978Z" fill="#408BFF"/>
<path d="M572.989 101.641L658.936 101.641V84.6153L572.989 84.6153V101.641Z" fill="#265399"/>
<path d="M593.822 97.0784L655.458 97.0784V89.2694H593.822V97.0784Z" fill="#40BEFF"/>
<path d="M589.562 95.2502C590.652 95.2502 591.536 94.3206 591.536 93.1739C591.536 92.0272 590.652 91.0977 589.562 91.0977C588.472 91.0977 587.588 92.0272 587.588 93.1739C587.588 94.3206 588.472 95.2502 589.562 95.2502Z" fill="#246AD6"/>
<path d="M583.845 95.2502C584.935 95.2502 585.819 94.3206 585.819 93.1739C585.819 92.0272 584.935 91.0977 583.845 91.0977C582.755 91.0977 581.871 92.0272 581.871 93.1739C581.871 94.3206 582.755 95.2502 583.845 95.2502Z" fill="#408BFF"/>
<path d="M578.134 95.2502C579.225 95.2502 580.108 94.3206 580.108 93.1739C580.108 92.0272 579.225 91.0976 578.134 91.0976C577.044 91.0976 576.161 92.0272 576.161 93.1739C576.161 94.3206 577.044 95.2502 578.134 95.2502Z" fill="#408BFF"/>
<path d="M572.989 141.953H658.936V124.928L572.989 124.928V141.953Z" fill="#265399"/>
<path d="M593.822 137.396H655.458V129.587H593.822V137.396Z" fill="#40BEFF"/>
<path d="M572.989 182.271H658.936V165.245H572.989V182.271Z" fill="#265399"/>
<path d="M593.822 177.708H655.458V169.899H593.822V177.708Z" fill="#40BEFF"/>
<path d="M572.989 222.583H658.936V205.557H572.989V222.583Z" fill="#265399"/>
<path d="M593.822 218.02H655.458V210.212H593.822V218.02Z" fill="#408BFF"/>
<path d="M572.989 261.843H658.936V244.818H572.989V261.843Z" fill="#265399"/>
<path d="M593.822 257.281H655.458V249.472H593.822V257.281Z" fill="#408BFF"/>
<path d="M589.562 255.615C590.652 255.615 591.536 254.685 591.536 253.538C591.536 252.392 590.652 251.462 589.562 251.462C588.472 251.462 587.588 252.392 587.588 253.538C587.588 254.685 588.472 255.615 589.562 255.615Z" fill="#246AD6"/>
<path d="M583.845 255.615C584.935 255.615 585.819 254.685 585.819 253.538C585.819 252.392 584.935 251.462 583.845 251.462C582.755 251.462 581.871 252.392 581.871 253.538C581.871 254.685 582.755 255.615 583.845 255.615Z" fill="#408BFF"/>
<path d="M578.134 255.615C579.225 255.615 580.108 254.685 580.108 253.538C580.108 252.392 579.225 251.462 578.134 251.462C577.044 251.462 576.161 252.392 576.161 253.538C576.161 254.685 577.044 255.615 578.134 255.615Z" fill="#408BFF"/>
<path d="M572.989 302.312H658.936V285.287H572.989V302.312Z" fill="#265399"/>
<path d="M593.822 297.744H655.458V289.935H593.822V297.744Z" fill="#408BFF"/>
<path d="M572.989 341.869H658.936V324.844H572.989V341.869Z" fill="#265399"/>
<path d="M593.822 337.307H655.458V329.498H593.822V337.307Z" fill="#408BFF"/>
<path d="M587.583 333.64C587.583 334.788 588.467 335.716 589.556 335.716C590.646 335.716 591.53 334.783 591.53 333.64C591.53 332.496 590.646 331.563 589.556 331.563C588.467 331.563 587.583 332.496 587.583 333.64Z" fill="#246AD6"/>
<path d="M581.871 333.64C581.871 334.788 582.756 335.716 583.845 335.716C584.934 335.716 585.819 334.783 585.819 333.64C585.819 332.496 584.934 331.563 583.845 331.563C582.756 331.563 581.871 332.496 581.871 333.64Z" fill="#408BFF"/>
<path d="M576.155 333.64C576.155 334.788 577.039 335.716 578.129 335.716C579.218 335.716 580.102 334.783 580.102 333.64C580.102 332.496 579.218 331.563 578.129 331.563C577.039 331.563 576.155 332.496 576.155 333.64Z" fill="#408BFF"/>
<path d="M589.561 135.891C590.651 135.891 591.535 134.962 591.535 133.815C591.535 132.668 590.651 131.739 589.561 131.739C588.471 131.739 587.587 132.668 587.587 133.815C587.587 134.962 588.471 135.891 589.561 135.891Z" fill="#246AD6"/>
<path d="M583.845 135.891C584.935 135.891 585.818 134.962 585.818 133.815C585.818 132.668 584.935 131.739 583.845 131.739C582.754 131.739 581.871 132.668 581.871 133.815C581.871 134.962 582.754 135.891 583.845 135.891Z" fill="#408BFF"/>
<path d="M578.134 135.891C579.224 135.891 580.108 134.962 580.108 133.815C580.108 132.668 579.224 131.739 578.134 131.739C577.044 131.739 576.16 132.668 576.16 133.815C576.16 134.962 577.044 135.891 578.134 135.891Z" fill="#408BFF"/>
<path d="M587.582 173.701C587.582 174.85 588.466 175.778 589.556 175.778C590.645 175.778 591.53 174.845 591.53 173.701C591.53 172.558 590.645 171.625 589.556 171.625C588.466 171.625 587.582 172.558 587.582 173.701Z" fill="#246AD6"/>
<path d="M581.871 173.701C581.871 174.85 582.755 175.778 583.845 175.778C584.934 175.778 585.818 174.845 585.818 173.701C585.818 172.558 584.934 171.625 583.845 171.625C582.755 171.625 581.871 172.558 581.871 173.701Z" fill="#408BFF"/>
<path d="M576.154 173.701C576.154 174.85 577.039 175.778 578.128 175.778C579.217 175.778 580.102 174.845 580.102 173.701C580.102 172.558 579.217 171.625 578.128 171.625C577.039 171.625 576.154 172.558 576.154 173.701Z" fill="#408BFF"/>
<path d="M589.561 216.316C590.651 216.316 591.535 215.387 591.535 214.24C591.535 213.093 590.651 212.164 589.561 212.164C588.471 212.164 587.587 213.093 587.587 214.24C587.587 215.387 588.471 216.316 589.561 216.316Z" fill="#246AD6"/>
<path d="M583.845 216.316C584.935 216.316 585.818 215.387 585.818 214.24C585.818 213.093 584.935 212.164 583.845 212.164C582.754 212.164 581.871 213.093 581.871 214.24C581.871 215.387 582.754 216.316 583.845 216.316Z" fill="#408BFF"/>
<path d="M578.134 216.316C579.224 216.316 580.108 215.387 580.108 214.24C580.108 213.093 579.224 212.164 578.134 212.164C577.044 212.164 576.16 213.093 576.16 214.24C576.16 215.387 577.044 216.316 578.134 216.316Z" fill="#408BFF"/>
<path d="M589.561 296.121C590.651 296.121 591.535 295.191 591.535 294.045C591.535 292.898 590.651 291.968 589.561 291.968C588.471 291.968 587.587 292.898 587.587 294.045C587.587 295.191 588.471 296.121 589.561 296.121Z" fill="#246AD6"/>
<path d="M583.845 296.121C584.935 296.121 585.818 295.191 585.818 294.045C585.818 292.898 584.935 291.968 583.845 291.968C582.754 291.968 581.871 292.898 581.871 294.045C581.871 295.191 582.754 296.121 583.845 296.121Z" fill="#408BFF"/>
<path d="M578.134 296.121C579.224 296.121 580.108 295.191 580.108 294.045C580.108 292.898 579.224 291.968 578.134 291.968C577.044 291.968 576.16 292.898 576.16 294.045C576.16 295.191 577.044 296.121 578.134 296.121Z" fill="#408BFF"/>
<path d="M548.565 375.538H552V20.1211H548.565V375.538Z" fill="#2D76E6"/>
<path d="M548.834 375.538H548.289V66.1175H680.492V66.6622H548.834V375.538Z" fill="#0B254D"/>
<path d="M551.687 215.459H555.834V193.283H551.687V215.459Z" fill="#265399"/>
<path d="M620.862 32.8161H668.244L671.906 29.2783H620.862V32.8161Z" fill="#265399"/>
<path d="M620.862 38.1551H668.244L671.906 34.6173H620.862V38.1551Z" fill="#265399"/>
<path d="M620.862 43.4941H668.244L671.906 39.9564H620.862V43.4941Z" fill="#265399"/>
<path d="M620.862 48.8385H668.244L671.906 45.3007H620.862V48.8385Z" fill="#265399"/>
<path d="M620.862 54.1775H668.244L671.906 50.6397H620.862V54.1775Z" fill="#265399"/>
<path d="M620.862 59.5165H668.244L671.906 55.9788H620.862V59.5165Z" fill="#265399"/>
<path d="M561.184 32.8161H608.572L612.234 29.2783H561.184V32.8161Z" fill="#265399"/>
<path d="M561.184 38.1551H608.572L612.234 34.6173H561.184V38.1551Z" fill="#265399"/>
<path d="M561.184 43.4941H608.572L612.234 39.9564H561.184V43.4941Z" fill="#265399"/>
<path d="M561.184 48.8385H608.572L612.234 45.3007H561.184V48.8385Z" fill="#265399"/>
<path d="M561.184 54.1775H608.572L612.234 50.6397H561.184V54.1775Z" fill="#265399"/>
<path d="M561.184 59.5165H608.572L612.234 55.9788H561.184V59.5165Z" fill="#265399"/>
<path d="M510.802 93.1685H543.052V71.8179H510.802V93.1685Z" fill="#2370E6"/>
<path d="M510.802 123.266H543.052V101.916H510.802V123.266Z" fill="#2370E6"/>
<path d="M510.802 154.901H543.052V133.551H510.802V154.901Z" fill="#2370E6"/>
<path d="M510.802 184.994H543.052V163.643H510.802V184.994Z" fill="#2370E6"/>
<path d="M510.802 352.305H543.052V196.907H510.802V352.305Z" fill="#2370E6"/>
<path d="M504.531 375.591H650.578C652.336 375.591 653.759 377.015 653.759 378.768V417.678C653.759 419.431 652.336 420.854 650.578 420.854H504.531C502.773 420.854 501.35 419.431 501.35 417.678V378.768C501.35 377.015 502.773 375.591 504.531 375.591Z" fill="#113873"/>
<path d="M546.585 375.413C572.099 375.446 661.541 375.564 684.245 375.591C686.575 375.591 688.435 377.447 688.435 379.728V416.74C688.435 419.021 686.58 420.87 684.251 420.876C661.438 420.924 573.027 421.173 546.59 421.237C544.255 421.243 542.384 419.393 542.384 417.101V379.555C542.384 377.269 544.261 375.419 546.59 375.419L546.585 375.413Z" fill="#1951A6"/>
<path d="M680.67 374.777H505.717V375.505H680.67V374.777Z" fill="#0B254D"/>
<path d="M499.769 0H322.433V373.262H499.769V0Z" fill="#4096FF"/>
<path d="M483.849 53.8917H334.179V349.657H483.849V53.8917Z" fill="#265399"/>
<path d="M328.7 141.71H328.112C326.867 141.71 325.858 142.72 325.858 143.965V176.258C325.858 177.502 326.867 178.512 328.112 178.512H328.7C329.945 178.512 330.954 177.502 330.954 176.258V143.965C330.954 142.72 329.945 141.71 328.7 141.71Z" fill="#265399"/>
<path d="M480.252 100.233H340.213V136.215H480.252V100.233Z" fill="#408BFF"/>
<path d="M480.252 142.104H340.213V178.086H480.252V142.104Z" fill="#408BFF"/>
<path d="M480.252 183.975H340.213V219.957H480.252V183.975Z" fill="#408BFF"/>
<path d="M480.252 225.846H340.213V261.827H480.252V225.846Z" fill="#408BFF"/>
<path d="M480.252 267.716H340.213V303.698H480.252V267.716Z" fill="#408BFF"/>
<path d="M480.252 309.587H340.213V345.569H480.252V309.587Z" fill="#408BFF"/>
<path d="M480.252 58.3624H340.213V94.3441H480.252V58.3624Z" fill="#408BFF"/>
<path d="M466.98 67.703H351.539V85.586H466.98V67.703Z" fill="#265399"/>
<path d="M439.002 72.5944H356.22V80.7917H439.002V72.5944Z" fill="#40BEFF"/>
<path d="M444.723 79.4219C446.189 79.4219 447.377 78.2001 447.377 76.693C447.377 75.1859 446.189 73.9642 444.723 73.9642C443.258 73.9642 442.07 75.1859 442.07 76.693C442.07 78.2001 443.258 79.4219 444.723 79.4219Z" fill="#40BEFF"/>
<path d="M452.398 79.4219C453.863 79.4219 455.051 78.2001 455.051 76.693C455.051 75.1859 453.863 73.9642 452.398 73.9642C450.932 73.9642 449.744 75.1859 449.744 76.693C449.744 78.2001 450.932 79.4219 452.398 79.4219Z" fill="#40BEFF"/>
<path d="M460.072 79.4219C461.537 79.4219 462.725 78.2001 462.725 76.693C462.725 75.1859 461.537 73.9642 460.072 73.9642C458.606 73.9642 457.418 75.1859 457.418 76.693C457.418 78.2001 458.606 79.4219 460.072 79.4219Z" fill="#408BFF"/>
<path d="M466.98 110.043H351.539V127.926H466.98V110.043Z" fill="#265399"/>
<path d="M439.002 114.934H356.22V123.132H439.002V114.934Z" fill="#40BEFF"/>
<path d="M466.98 152.383H351.539V170.266H466.98V152.383Z" fill="#265399"/>
<path d="M439.002 157.274H356.22V165.472H439.002V157.274Z" fill="#40BEFF"/>
<path d="M466.98 194.723H351.539V212.606H466.98V194.723Z" fill="#265399"/>
<path d="M439.002 199.614H356.22V207.812H439.002V199.614Z" fill="#40BEFF"/>
<path d="M466.98 235.952H351.539V253.835H466.98V235.952Z" fill="#265399"/>
<path d="M439.002 240.843H356.22V249.041H439.002V240.843Z" fill="#40BEFF"/>
<path d="M466.98 278.454H351.539V296.337H466.98V278.454Z" fill="#265399"/>
<path d="M439.002 283.345H356.22V291.542H439.002V283.345Z" fill="#40BEFF"/>
<path d="M466.98 320.001H351.539V337.884H466.98V320.001Z" fill="#265399"/>
<path d="M439.002 324.892H356.22V333.09H439.002V324.892Z" fill="#40BEFF"/>
<path d="M445.219 121.945C446.685 121.945 447.872 120.723 447.872 119.216C447.872 117.709 446.685 116.488 445.219 116.488C443.754 116.488 442.566 117.709 442.566 119.216C442.566 120.723 443.754 121.945 445.219 121.945Z" fill="#246AD6"/>
<path d="M452.894 121.945C454.359 121.945 455.547 120.723 455.547 119.216C455.547 117.709 454.359 116.488 452.894 116.488C451.428 116.488 450.24 117.709 450.24 119.216C450.24 120.723 451.428 121.945 452.894 121.945Z" fill="#40BEFF"/>
<path d="M460.567 121.945C462.033 121.945 463.221 120.723 463.221 119.216C463.221 117.709 462.033 116.488 460.567 116.488C459.102 116.488 457.914 117.709 457.914 119.216C457.914 120.723 459.102 121.945 460.567 121.945Z" fill="#40BEFF"/>
<path d="M444.659 163.962C446.124 163.962 447.312 162.74 447.312 161.233C447.312 159.726 446.124 158.504 444.659 158.504C443.193 158.504 442.005 159.726 442.005 161.233C442.005 162.74 443.193 163.962 444.659 163.962Z" fill="#40BEFF"/>
<path d="M452.333 163.962C453.798 163.962 454.986 162.74 454.986 161.233C454.986 159.726 453.798 158.504 452.333 158.504C450.868 158.504 449.68 159.726 449.68 161.233C449.68 162.74 450.868 163.962 452.333 163.962Z" fill="#40BEFF"/>
<path d="M460.007 163.962C461.472 163.962 462.66 162.74 462.66 161.233C462.66 159.726 461.472 158.504 460.007 158.504C458.541 158.504 457.354 159.726 457.354 161.233C457.354 162.74 458.541 163.962 460.007 163.962Z" fill="#408BFF"/>
<path d="M444.659 206.35C446.124 206.35 447.312 205.128 447.312 203.621C447.312 202.114 446.124 200.893 444.659 200.893C443.193 200.893 442.005 202.114 442.005 203.621C442.005 205.128 443.193 206.35 444.659 206.35Z" fill="#40BEFF"/>
<path d="M452.333 206.35C453.798 206.35 454.986 205.128 454.986 203.621C454.986 202.114 453.798 200.892 452.333 200.892C450.868 200.892 449.68 202.114 449.68 203.621C449.68 205.128 450.868 206.35 452.333 206.35Z" fill="#40BEFF"/>
<path d="M460.007 206.35C461.472 206.35 462.66 205.128 462.66 203.621C462.66 202.114 461.472 200.892 460.007 200.892C458.541 200.892 457.354 202.114 457.354 203.621C457.354 205.128 458.541 206.35 460.007 206.35Z" fill="#408BFF"/>
<path d="M444.286 247.525C445.752 247.525 446.94 246.303 446.94 244.796C446.94 243.289 445.752 242.068 444.286 242.068C442.821 242.068 441.633 243.289 441.633 244.796C441.633 246.303 442.821 247.525 444.286 247.525Z" fill="#246AD6"/>
<path d="M451.955 247.525C453.42 247.525 454.608 246.303 454.608 244.796C454.608 243.289 453.42 242.068 451.955 242.068C450.49 242.068 449.302 243.289 449.302 244.796C449.302 246.303 450.49 247.525 451.955 247.525Z" fill="#40BEFF"/>
<path d="M459.629 247.525C461.095 247.525 462.283 246.303 462.283 244.796C462.283 243.289 461.095 242.068 459.629 242.068C458.164 242.068 456.976 243.289 456.976 244.796C456.976 246.303 458.164 247.525 459.629 247.525Z" fill="#40BEFF"/>
<path d="M444.75 289.914C446.216 289.914 447.404 288.692 447.404 287.185C447.404 285.678 446.216 284.456 444.75 284.456C443.285 284.456 442.097 285.678 442.097 287.185C442.097 288.692 443.285 289.914 444.75 289.914Z" fill="#40BEFF"/>
<path d="M455.083 287.185C455.083 288.695 453.897 289.914 452.43 289.914C450.963 289.914 449.776 288.69 449.776 287.185C449.776 285.68 450.963 284.456 452.43 284.456C453.897 284.456 455.083 285.68 455.083 287.185Z" fill="#40BEFF"/>
<path d="M460.099 289.914C461.564 289.914 462.752 288.692 462.752 287.185C462.752 285.678 461.564 284.456 460.099 284.456C458.633 284.456 457.445 285.678 457.445 287.185C457.445 288.692 458.633 289.914 460.099 289.914Z" fill="#408BFF"/>
<path d="M444.75 331.369C446.216 331.369 447.404 330.148 447.404 328.641C447.404 327.133 446.216 325.912 444.75 325.912C443.285 325.912 442.097 327.133 442.097 328.641C442.097 330.148 443.285 331.369 444.75 331.369Z" fill="#246AD6"/>
<path d="M455.083 328.64C455.083 330.151 453.897 331.369 452.43 331.369C450.963 331.369 449.776 330.145 449.776 328.64C449.776 327.136 450.963 325.912 452.43 325.912C453.897 325.912 455.083 327.136 455.083 328.64Z" fill="#40BEFF"/>
<path d="M460.099 331.369C461.564 331.369 462.752 330.148 462.752 328.64C462.752 327.133 461.564 325.912 460.099 325.912C458.633 325.912 457.445 327.133 457.445 328.64C457.445 330.148 458.633 331.369 460.099 331.369Z" fill="#40BEFF"/>
<path d="M499.785 48.2453H322.589V48.8924H499.785V48.2453Z" fill="#0B254D"/>
<path d="M402.686 9.58868H335.899V13.3044H402.686V9.58868Z" fill="#265399"/>
<path d="M402.686 15.1973H335.899V18.913H402.686V15.1973Z" fill="#265399"/>
<path d="M402.686 20.806H335.899V24.5217H402.686V20.806Z" fill="#265399"/>
<path d="M402.686 26.4147H335.899V30.1304H402.686V26.4147Z" fill="#265399"/>
<path d="M402.686 32.0233H335.899V35.739H402.686V32.0233Z" fill="#265399"/>
<path d="M402.686 37.632H335.899V41.3477H402.686V37.632Z" fill="#265399"/>
<path d="M482.83 9.58868H416.178V13.3044H482.83V9.58868Z" fill="#265399"/>
<path d="M482.83 15.1973H416.178V18.913H482.83V15.1973Z" fill="#265399"/>
<path d="M482.83 20.806H416.178V24.5217H482.83V20.806Z" fill="#265399"/>
<path d="M482.83 26.4147H416.178V30.1304H482.83V26.4147Z" fill="#265399"/>
<path d="M482.83 32.0233H416.178V35.739H482.83V32.0233Z" fill="#265399"/>
<path d="M482.83 37.632H416.178V41.3477H482.83V37.632Z" fill="#265399"/>
<path d="M502.444 373.111C468.177 373.143 348.049 373.272 317.552 373.294C314.424 373.294 311.927 375.241 311.927 377.635V416.502C311.927 418.897 314.424 420.838 317.547 420.844C348.189 420.892 466.931 421.151 502.438 421.221C505.577 421.226 508.09 419.28 508.09 416.88V377.447C508.09 375.047 505.572 373.1 502.438 373.105L502.444 373.111Z" fill="#1951A6"/>
<path d="M502.444 372.393H322.357V373.256H502.444V372.393Z" fill="#0B254D"/>
<path d="M374.179 379.21H323.42C321.705 379.21 320.314 380.601 320.314 382.316V382.322C320.314 384.037 321.705 385.428 323.42 385.428H374.179C375.894 385.428 377.285 384.037 377.285 382.322V382.316C377.285 380.601 375.894 379.21 374.179 379.21Z" fill="#408BFF"/>
<path d="M388 197.48C388.238 197.366 388.491 197.361 388.748 197.361C402.344 197.361 415.941 197.361 429.537 197.361C429.823 197.361 430.171 197.27 430.299 197.647C430.419 197.985 430.109 198.137 429.923 198.323C427.46 200.791 424.988 203.244 422.529 205.717C422.067 206.184 421.553 206.398 420.895 206.398C413.068 206.389 405.236 206.389 397.409 206.398C396.751 206.398 396.242 206.189 395.775 205.717C393.198 203.12 390.596 200.543 388 197.956C388 197.799 388 197.642 388 197.48Z" fill="white" fill-opacity="0.8"/>
<path d="M388 194.274C389.396 192.902 390.792 191.534 392.183 190.158C393.769 188.581 395.346 186.994 396.928 185.417C397.49 184.855 397.861 184.86 398.443 185.437C401.287 188.271 404.131 191.11 406.97 193.955C407.156 194.14 407.456 194.302 407.323 194.641C407.185 194.988 406.846 194.945 406.556 194.945C403.645 194.945 400.734 194.945 397.819 194.945C394.846 194.945 391.878 194.945 388.905 194.945C388.586 194.945 388.267 194.96 388 194.745V194.269V194.274Z" fill="white" fill-opacity="0.8"/>
<path d="M420.591 194.95C417.718 194.95 414.845 194.95 411.973 194.95C411.815 194.95 411.653 194.955 411.496 194.95C411.272 194.936 411.053 194.893 410.972 194.641C410.901 194.417 411.039 194.274 411.182 194.126C412.43 192.883 413.673 191.634 414.917 190.391C416.555 188.752 418.19 187.118 419.833 185.484C420.467 184.851 420.81 184.851 421.434 185.47C424.264 188.29 427.093 191.115 429.914 193.945C430.114 194.145 430.447 194.317 430.29 194.674C430.142 195.007 429.795 194.95 429.504 194.95C426.531 194.95 423.563 194.95 420.591 194.95Z" fill="white" fill-opacity="0.8"/>
<path d="M409.162 208.837C412.134 208.837 415.107 208.837 418.08 208.837C418.342 208.837 418.67 208.737 418.804 209.085C418.933 209.418 418.651 209.585 418.461 209.776C415.617 212.615 412.773 215.454 409.929 218.294C409.314 218.904 409.014 218.908 408.385 218.284C405.522 215.435 402.668 212.582 399.81 209.728C399.634 209.552 399.381 209.39 399.514 209.08C399.648 208.771 399.938 208.837 400.186 208.837C403.178 208.837 406.17 208.837 409.162 208.837Z" fill="white" fill-opacity="0.8"/>
<path d="M46 238.152C46.1747 238.068 46.3598 238.065 46.5485 238.065C56.5194 238.065 66.4903 238.065 76.4612 238.065C76.6708 238.065 76.9258 237.998 77.0202 238.274C77.1075 238.522 76.8804 238.634 76.7442 238.77C74.938 240.58 73.1247 242.379 71.322 244.193C70.9831 244.535 70.6058 244.692 70.1237 244.692C64.3836 244.685 58.64 244.685 52.9 244.692C52.4178 244.692 52.044 244.539 51.7016 244.193C49.8116 242.289 47.904 240.399 46 238.501C46 238.386 46 238.271 46 238.152Z" fill="white" fill-opacity="0.8"/>
<path d="M46 235.801C47.0236 234.795 48.0473 233.792 49.0674 232.782C50.2308 231.626 51.3872 230.463 52.5471 229.306C52.9594 228.894 53.2319 228.897 53.6581 229.32C55.7438 231.399 57.8295 233.481 59.9117 235.567C60.048 235.703 60.2681 235.822 60.1703 236.07C60.069 236.325 59.8209 236.293 59.6078 236.293C57.4732 236.293 55.3385 236.293 53.2004 236.293C51.0204 236.293 48.8438 236.293 46.6638 236.293C46.4297 236.293 46.1956 236.304 46 236.147V235.797V235.801Z" fill="white" fill-opacity="0.8"/>
<path d="M69.9 236.297C67.7933 236.297 65.6866 236.297 63.58 236.297C63.4647 236.297 63.3459 236.3 63.2306 236.297C63.0664 236.286 62.9057 236.255 62.8463 236.07C62.7939 235.906 62.8952 235.801 63 235.693C63.9153 234.781 64.8272 233.865 65.739 232.954C66.9409 231.752 68.1392 230.553 69.3445 229.355C69.8091 228.89 70.0607 228.89 70.5184 229.345C72.5936 231.413 74.6688 233.485 76.7371 235.56C76.8838 235.707 77.1284 235.832 77.0131 236.094C76.9048 236.339 76.6497 236.297 76.4366 236.297C74.2566 236.297 72.08 236.297 69.9 236.297Z" fill="white" fill-opacity="0.8"/>
<path d="M61.5186 246.481C63.6987 246.481 65.8787 246.481 68.0587 246.481C68.2509 246.481 68.492 246.408 68.5898 246.663C68.6841 246.907 68.478 247.03 68.3382 247.169C66.2525 249.251 64.1668 251.334 62.0811 253.416C61.6304 253.863 61.4103 253.867 60.9491 253.409C58.8495 251.32 56.7568 249.227 54.6606 247.134C54.5313 247.005 54.3461 246.886 54.444 246.659C54.5418 246.432 54.7549 246.481 54.9366 246.481C57.1306 246.481 59.3246 246.481 61.5186 246.481Z" fill="white" fill-opacity="0.8"/>
</svg>
